<?xml version="1.0" encoding="UTF-8" standalone="no"?>
<!-- Created with Inkscape (http://www.inkscape.org/) -->

<svg
   width="86.64827mm"
   height="86.706879mm"
   viewBox="0 0 86.64827 86.706879"
   version="1.1"
   id="svg1"
   inkscape:version="1.4.2 (ebf0e940d0, 2025-05-08)"
   sodipodi:docname="logo-icon.svg"
   xmlns:inkscape="http://www.inkscape.org/namespaces/inkscape"
   xmlns:sodipodi="http://sodipodi.sourceforge.net/DTD/sodipodi-0.dtd"
   xmlns="http://www.w3.org/2000/svg"
   xmlns:svg="http://www.w3.org/2000/svg">
  <sodipodi:namedview
     id="namedview1"
     pagecolor="#ffffff"
     bordercolor="#666666"
     borderopacity="1.0"
     inkscape:showpageshadow="2"
     inkscape:pageopacity="0.0"
     inkscape:pagecheckerboard="0"
     inkscape:deskcolor="#d1d1d1"
     inkscape:document-units="mm"
     inkscape:zoom="2.73684"
     inkscape:cx="163.32705"
     inkscape:cy="165.51936"
     inkscape:window-width="1916"
     inkscape:window-height="1157"
     inkscape:window-x="0"
     inkscape:window-y="23"
     inkscape:window-maximized="1"
     inkscape:current-layer="layer1" />
  <defs
     id="defs1">
    <inkscape:path-effect
       effect="spiro"
       id="path-effect267"
       is_visible="true"
       lpeversion="1" />
    <inkscape:path-effect
       effect="spiro"
       id="path-effect269"
       is_visible="true"
       lpeversion="1" />
    <inkscape:path-effect
       effect="spiro"
       id="path-effect271"
       is_visible="true"
       lpeversion="1" />
    <inkscape:path-effect
       effect="spiro"
       id="path-effect273"
       is_visible="true"
       lpeversion="1" />
    <inkscape:path-effect
       effect="spiro"
       id="path-effect277"
       is_visible="true"
       lpeversion="1" />
    <inkscape:path-effect
       effect="fillet_chamfer"
       id="path-effect279"
       is_visible="true"
       lpeversion="1"
       nodesatellites_param="F,0,0,1,0,0,0,1 @ F,0,0,1,0,0,0,1 @ F,0,0,1,0,0,0,1 @ F,0,0,1,0,0,0,1 @ F,0,0,1,0,0,0,1 @ F,0,0,1,0,0,0,1 @ F,0,0,1,0,0,0,1 @ F,0,0,1,0,0,0,1 @ F,0,0,1,0,1.0770959,0,1 @ F,0,0,1,0,48.614311,0,1"
       radius="0"
       unit="px"
       method="auto"
       mode="F"
       chamfer_steps="1"
       flexible="false"
       use_knot_distance="true"
       apply_no_radius="true"
       apply_with_radius="true"
       only_selected="false"
       hide_knots="false" />
    <inkscape:path-effect
       effect="spiro"
       id="path-effect31"
       is_visible="true"
       lpeversion="1" />
    <inkscape:path-effect
       effect="fillet_chamfer"
       id="path-effect33"
       is_visible="true"
       lpeversion="1"
       nodesatellites_param="F,0,0,1,0,0,0,1 @ F,0,0,1,0,0,0,1 @ F,0,0,1,0,0,0,1 @ F,0,0,1,0,0,0,1 @ F,0,0,1,0,0,0,1 @ F,0,0,1,0,0,0,1 @ F,0,0,1,0,0,0,1 @ F,0,0,1,0,2.7984001,0,1 @ F,0,1,1,0,0,0,1 @ F,0,0,1,0,0,0,1"
       radius="0"
       unit="px"
       method="auto"
       mode="F"
       chamfer_steps="1"
       flexible="false"
       use_knot_distance="true"
       apply_no_radius="true"
       apply_with_radius="true"
       only_selected="false"
       hide_knots="false" />
  </defs>
  <g
     inkscape:label="Layer 1"
     inkscape:groupmode="layer"
     id="layer1"
     transform="translate(-107.94999,-33.866671)">
    <path
       style="fill:none;stroke:#87de87;stroke-width:0.465;stroke-linecap:round;stroke-linejoin:miter;stroke-dasharray:none;stroke-opacity:1"
       d="m 154.1476,82.537834 c 1.1152,0.734673 2.47161,1.096383 3.80454,1.014544 1.78048,-0.109318 3.4492,-0.97628 5.22998,-1.080471 1.23989,-0.07254 2.46845,0.228627 3.66918,0.546177 1.20073,0.31755 2.41383,0.656288 3.65583,0.661114 1.6814,0.0065 3.32535,-0.600183 5.006,-0.549364 1.48138,0.04479 2.90327,0.597836 4.37854,0.739589 1.60903,0.154604 3.25415,-0.193947 4.69227,-0.931979 0.65155,-0.334369 1.26281,-0.747143 1.81641,-1.226574"
       id="path32"
       sodipodi:nodetypes="czzzzzzc" />
    <path
       style="fill:none;stroke:#afe9af;stroke-width:0.264583px;stroke-linecap:round;stroke-linejoin:miter;stroke-opacity:1"
       d="m 154.67677,83.596164 c 1.11552,0.734033 2.47164,1.095666 3.80454,1.014544 1.7805,-0.10836 3.44941,-0.973132 5.22998,-1.080471 1.23968,-0.07473 2.46912,0.221671 3.67025,0.537409 1.20113,0.315735 2.41291,0.655439 3.65476,0.669882 1.6809,0.01955 3.325,-0.558392 5.00599,-0.549364 0.77138,0.0042 1.53587,0.131997 2.30056,0.233415 1.65189,0.219086 3.35405,0.312753 4.96552,-0.111403 1.18261,-0.311277 2.29104,-0.900729 3.21031,-1.707205"
       id="path33"
       sodipodi:nodetypes="czzzzzzc" />
    <path
       id="path34"
       style="fill:#aaccff;stroke-width:0.744897"
       d="m 149.91451,74.815391 c -0.23264,5.122879 4.9554,1.957499 1.16297,5.409388 -2.14389,1.951381 -12.2698,11.548853 -15.04377,12.387977 -8.00601,-1.895306 -15.49338,-3.852005 -21.92891,-9.516457 0.0881,0.430443 0.0179,0.89372 0.15837,1.562838 0.31191,1.284084 1.30978,7.234849 2.30196,9.863058 0.93693,2.215171 2.08332,4.320011 3.41426,6.290075 1.33094,1.97003 2.84637,3.80494 4.52169,5.48026 1.67532,1.67534 3.51074,3.19077 5.4808,4.5217 1.97006,1.33093 4.0749,2.47732 6.29006,3.41426 2.21515,0.93692 4.54037,1.66474 6.95099,2.158 2.41062,0.49329 4.90666,0.75242 7.46311,0.75242 2.55645,0 5.05249,-0.25913 7.46311,-0.75242 2.41063,-0.49326 4.73584,-1.22108 6.951,-2.158 2.21516,-0.93694 4.32,-2.08333 6.29006,-3.41426 1.97005,-1.33093 3.80548,-2.84636 5.4808,-4.5217 1.67531,-1.67532 3.19074,-3.51023 4.52169,-5.48026 1.33094,-1.970064 2.47732,-4.074904 3.41426,-6.290075 0.93693,-2.215152 1.5748,-5.258157 2.06809,-7.668778 l -4.88653,1.310513 c -3.93351,0.519311 -24.6359,-7.078647 -28.51479,-7.914741 -7.98241,-1.720601 1.38127,1.067809 -3.55922,-5.433798 z"
       sodipodi:nodetypes="cscccsssssssssssssccsc" />
    <path
       style="font-weight:500;font-size:24px;line-height:1.25;font-family:Orbitron;-inkscape-font-specification:'Orbitron Medium';text-align:center;letter-spacing:0px;word-spacing:0px;text-anchor:middle;stroke-width:0.264583"
       d="m 110.5092,87.157977 c -0.43738,0.109378 -0.71149,0.557567 -0.60057,1.001109 l 0.90891,3.634576 4.42925,-1.107639 -0.16637,-0.66531 -1.59552,0.398994 c -0.005,-0.04466 -0.009,-0.08932 -0.0216,-0.138607 l -0.37897,-1.515433 1.25044,-1.726539 -0.19718,-0.788519 -0.0924,0.0231 -1.17806,1.623346 -0.11246,-0.449702 c -0.11092,-0.443542 -0.56373,-0.709948 -1.00111,-0.600569 z m 2.28882,3.289501 c 0.0185,0.07392 -0.0277,0.150931 -0.10164,0.169418 L 111.452,90.92808 c -0.0739,0.01849 -0.15093,-0.02771 -0.16941,-0.101634 l -0.70865,-2.833738 c -0.0185,-0.07392 0.0277,-0.150932 0.10164,-0.169418 l 1.24438,-0.311187 c 0.0739,-0.01849 0.15093,0.02771 0.16942,0.101637 z m -2.7436,-7.31611 0.24109,2.081585 c 0.0526,0.454163 0.46083,0.777645 0.915,0.725043 l 2.0185,-0.233786 c 0.45417,-0.0526 0.77765,-0.46083 0.72505,-0.914995 l -0.33607,-2.901603 -0.68125,0.0789 0.33607,2.901603 c 0.009,0.0757 -0.047,0.146076 -0.1227,0.154845 l -0.66863,0.07744 -0.35214,-3.040375 -1.34988,0.156345 c -0.45416,0.0526 -0.77764,0.46083 -0.72504,0.914993 z m 1.74581,2.047941 -0.66862,0.07744 c -0.0757,0.0088 -0.14608,-0.04701 -0.15485,-0.122701 l -0.24109,-2.081583 c -0.009,-0.07569 0.047,-0.146079 0.1227,-0.154845 l 0.66863,-0.07744 z m -1.82734,-8.76735 -0.12946,4.703569 3.6816,0.101333 0.0189,-0.685541 -2.85642,-0.07862 c -0.0762,-0.0021 -0.1379,-0.06732 -0.1358,-0.143489 l 0.0402,-1.459947 c 0.002,-0.07617 0.0673,-0.137901 0.14349,-0.135806 l 2.85642,0.07862 0.0189,-0.68554 -2.85641,-0.07862 c -0.0762,-0.0021 -0.13791,-0.06732 -0.13581,-0.143489 l 0.04,-1.4536 c 0.002,-0.08252 0.0675,-0.144248 0.14367,-0.142153 l 2.85641,0.07862 0.0187,-0.67919 -2.85642,-0.07862 c -0.45703,-0.01259 -0.83532,0.345448 -0.8479,0.802473 z m 0.3449,-2.811904 c -0.0765,0.450747 0.2249,0.875509 0.67565,0.95205 l 2.00332,0.34018 c 0.45075,0.07654 0.87551,-0.224904 0.95205,-0.675651 l 0.35081,-2.065924 c 0.0765,-0.45075 -0.2249,-0.875509 -0.67565,-0.952051 l -2.00332,-0.34018 c -0.45075,-0.07654 -0.87551,0.224901 -0.95205,0.675651 z m 1.02693,-1.951114 c 0.0128,-0.07513 0.086,-0.127098 0.16112,-0.11434 l 2.00332,0.34018 c 0.0751,0.01275 0.1271,0.08599 0.11434,0.161115 l -0.35081,2.065928 c -0.0127,0.07512 -0.086,0.127098 -0.16112,0.11434 l -2.00332,-0.340181 c -0.0751,-0.01275 -0.1271,-0.08599 -0.11434,-0.161118 z m 0.91388,-3.689022 -0.6627,-0.176514 -0.38898,1.460383 -1.16585,-0.310533 -0.17652,0.662694 1.96354,0.523004 c 0,0 0,0 0,0 l 1.96354,0.523002 c 0.4418,0.117676 0.89249,-0.14342 1.01016,-0.585216 l 0.35303,-1.325391 -0.6627,-0.176514 -0.35302,1.325391 c -0.0196,0.07363 -0.0973,0.11865 -0.17095,0.09904 l -2.09854,-0.558959 z m 0.54744,-3.633052 -0.72751,1.965158 c -0.15873,0.42876 0.0588,0.902018 0.48755,1.060749 l 1.90561,0.705466 c 0.42876,0.158729 0.90202,-0.0588 1.06075,-0.487558 l 1.01411,-2.73931 -0.64314,-0.238096 -1.01411,2.739313 c -0.0265,0.07146 -0.10805,0.108963 -0.17951,0.08251 l -0.63124,-0.233686 1.06261,-2.870321 -1.27437,-0.471782 c -0.42876,-0.158728 -0.90202,0.0588 -1.06075,0.487559 z m 0.62937,2.616448 -0.63123,-0.233685 c -0.0715,-0.02646 -0.10897,-0.10805 -0.0825,-0.179512 l 0.72751,-1.965158 c 0.0265,-0.07146 0.10805,-0.108963 0.17951,-0.08251 l 0.63124,0.233686 z m 3.25079,-10.224759 c -0.39363,-0.232569 -0.89806,-0.102822 -1.13063,0.290806 l -1.48585,2.514857 c -0.23257,0.393629 -0.10282,0.898065 0.29081,1.130633 l 0.84193,0.497436 c 0.39363,0.232566 0.89806,0.102822 1.13063,-0.290807 l 1.48585,-2.514856 c 0.0388,-0.06561 0.12573,-0.08797 0.19134,-0.04921 l 0.84193,0.497435 c 0.0656,0.03876 0.088,0.125733 0.0492,0.191339 l -1.48585,2.514854 c -0.0388,0.06561 -0.12573,0.08798 -0.19133,0.04921 l -0.22962,-0.135665 -0.34885,0.590444 0.22961,0.135665 c 0.39363,0.232566 0.89807,0.102823 1.13064,-0.290808 l 1.48584,-2.514854 c 0.23257,-0.393632 0.10283,-0.898068 -0.2908,-1.130634 l -0.84193,-0.497435 c -0.39363,-0.232569 -0.89807,-0.102825 -1.13064,0.290806 l -1.48584,2.514854 c -0.0388,0.06561 -0.12574,0.08798 -0.19134,0.04922 l -0.84193,-0.497435 c -0.0656,-0.03876 -0.088,-0.125735 -0.0492,-0.191339 l 1.48584,-2.514856 c 0.0388,-0.0656 0.12574,-0.08797 0.19134,-0.04921 l 0.22962,0.135665 0.34885,-0.590446 z m 2.51127,-3.188041 -1.28996,1.651397 c -0.28145,0.360304 -0.21793,0.877271 0.14238,1.158719 l 1.60135,1.250873 c 0.36031,0.281448 0.87728,0.217921 1.15872,-0.142383 l 1.79814,-2.301949 -0.54046,-0.422169 -1.79813,2.301949 c -0.0469,0.06005 -0.13604,0.071 -0.19609,0.0241 l -0.53045,-0.414353 1.88413,-2.41204 -1.07091,-0.836522 c -0.36031,-0.281448 -0.87727,-0.217921 -1.15872,0.142383 z m -0.19496,2.68401 -0.53045,-0.414353 c -0.0601,-0.04691 -0.071,-0.136039 -0.0241,-0.196091 l 1.28996,-1.651397 c 0.0469,-0.06005 0.13604,-0.071 0.19609,-0.0241 l 0.53045,0.414353 z m 3.49402,-6.238134 -2.05809,2.072799 2.61353,2.594985 0.4832,-0.486656 -2.02774,-2.013352 c -0.0541,-0.05369 -0.0544,-0.143491 -7.9e-4,-0.197564 l 1.47646,-1.487009 c 0.0537,-0.05407 0.14349,-0.05439 0.19756,-7.94e-4 l 2.02774,2.013352 0.4832,-0.486656 -2.02774,-2.013352 c -0.32443,-0.322135 -0.84529,-0.320283 -1.16742,0.0042 z m 4.83034,-2.983828 c -0.28419,-0.358148 -0.80163,-0.417724 -1.15977,-0.133535 l -1.64151,1.30253 c -0.35814,0.284189 -0.41772,0.801624 -0.13353,1.159772 l 0.33155,0.417835 c 0.28419,0.358148 0.80163,0.417725 1.15977,0.133536 l 1.64151,-1.302531 c 0.0597,-0.04736 0.1489,-0.03709 0.19627,0.0226 l 0.33155,0.417837 c 0.0474,0.05969 0.0371,0.148905 -0.0226,0.196268 l -1.6415,1.302531 c -0.0597,0.04737 -0.1489,0.03709 -0.19627,-0.0226 l -0.0868,-0.109431 -0.53722,0.426281 0.0868,0.109434 c 0.28419,0.358148 0.80163,0.417724 1.15977,0.133535 l 1.64151,-1.30253 c 0.35814,-0.284189 0.41772,-0.801624 0.13353,-1.159772 l -0.33155,-0.417836 c -0.28419,-0.358148 -0.80163,-0.417724 -1.15977,-0.133535 l -1.64151,1.302531 c -0.0597,0.04736 -0.1489,0.03709 -0.19627,-0.0226 l -0.33155,-0.417838 c -0.0474,-0.05969 -0.0371,-0.148905 0.0226,-0.196268 l 1.6415,-1.302533 c 0.0597,-0.04736 0.1489,-0.03709 0.19627,0.0226 l 0.0868,0.109431 0.53722,-0.42628 z m 2.32422,1.910313 0.56772,-0.384731 -2.06615,-3.048857 -0.56772,0.384731 z m -2.74299,-4.04762 0.38473,0.567719 0.56772,-0.38473 -0.38473,-0.567719 z m 4.45787,-1.324438 -2.53554,1.450266 1.82859,3.196987 0.5953,-0.340498 -1.41873,-2.480421 c -0.0378,-0.06614 -0.0142,-0.152791 0.0519,-0.190624 l 1.81898,-1.040408 c 0.0661,-0.03783 0.15279,-0.01423 0.19062,0.0519 l 1.41874,2.480421 0.5953,-0.340494 -1.41874,-2.480422 c -0.22699,-0.396869 -0.72955,-0.533707 -1.12642,-0.30671 z m 5.97693,-0.234931 -0.56844,-1.338443 c -0.17872,-0.42082 -0.66169,-0.615841 -1.08251,-0.437118 l -1.92876,0.819153 c -0.42082,0.178723 -0.61584,0.661691 -0.43711,1.082511 l 0.79432,1.87031 c 0.17873,0.42082 0.66169,0.615842 1.08251,0.437118 l 2.05735,-0.873762 0.24822,0.584472 c 0.0298,0.07014 -0.004,0.153408 -0.074,0.183195 l -2.09241,0.888656 0.26809,0.63123 2.09241,-0.888656 c 0.42082,-0.178724 0.61584,-0.661691 0.43711,-1.082511 l -0.79433,-1.870311 z m -2.40807,1.802302 c -0.0701,0.02979 -0.15341,-0.0038 -0.1832,-0.07397 l -0.79432,-1.870311 c -0.0298,-0.07014 0.004,-0.153408 0.074,-0.183195 l 1.92876,-0.819152 c 0.0701,-0.02979 0.15341,0.0038 0.18319,0.07397 l 0.79433,1.87031 c 0.0298,0.07014 -0.004,0.153408 -0.074,0.183195 z m 5.2792,-5.06957 c -0.4447,0.106198 -0.71738,0.549973 -0.61118,0.994669 l 0.47199,1.976424 c 0.1062,0.444693 0.54998,0.717373 0.99467,0.611174 l 2.03819,-0.486743 c 0.44469,-0.106198 0.71737,-0.549974 0.61117,-0.994667 l -0.47199,-1.976424 c -0.1062,-0.444696 -0.54997,-0.717373 -0.99467,-0.611174 z m 2.19748,0.1803 c 0.0741,-0.0177 0.15063,0.02932 0.16833,0.103431 l 0.47199,1.976421 c 0.0177,0.07412 -0.0293,0.15063 -0.10343,0.168331 l -2.03819,0.486741 c -0.0741,0.0177 -0.15062,-0.02931 -0.16832,-0.103429 l -0.472,-1.976424 c -0.0177,-0.07411 0.0293,-0.150627 0.10343,-0.168328 z m 2.38684,-1.635445 1.35809,-0.191982 -0.096,-0.679048 -1.3581,0.191979 c -0.4527,0.06399 -0.76582,0.480219 -0.70182,0.932918 l 0.28441,2.011998 c 0,0 0,0 0,0 l 0.28442,2.011997 0.67905,-0.09599 -0.41952,-2.967697 1.49643,-0.211534 -0.096,-0.679048 -1.49643,0.211534 -0.0533,-0.37725 c -0.0107,-0.07545 0.0433,-0.147212 0.11878,-0.157877 z m 6.83773,1.331973 -1.72815,-2.155484 -0.81258,-0.01897 -0.10674,4.570756 0.68561,0.01601 0.0854,-3.656602 1.85155,2.310805 1.95741,-2.221857 -0.0854,3.656602 0.68561,0.01601 0.10674,-4.570753 -0.81893,-0.01913 z m 6.68875,-0.535345 -2.88352,-0.466399 -0.10951,0.677 2.88353,0.466399 c 0.0752,0.01217 0.12777,0.08499 0.1156,0.160213 l -0.10747,0.664464 -3.02144,-0.488703 -0.21697,1.341466 c -0.073,0.451334 0.23176,0.873715 0.6831,0.946716 l 2.88352,0.4664 0.45626,-2.820839 c 0.073,-0.451335 -0.23176,-0.873715 -0.6831,-0.946717 z m -0.34066,2.981053 -2.20652,-0.356897 c -0.0752,-0.01217 -0.12777,-0.08499 -0.1156,-0.160215 l 0.10747,-0.664464 2.34443,0.379203 z m 2.83539,-2.413273 c -0.44162,-0.118327 -0.89269,0.142105 -1.01102,0.583729 l -0.5259,1.962767 c 0,0 0,0 0,0 l -0.21364,0.797372 0.66243,0.177493 0.73955,-2.760141 c 0.0197,-0.07361 0.0975,-0.118507 0.17109,-0.09879 l 1.9873,0.532474 0.17749,-0.662435 z m 1.37604,4.233818 0.65054,0.217085 1.16582,-3.493614 -0.65053,-0.217085 z m 1.54774,-4.638072 -0.21709,0.650534 0.65054,0.217085 0.21708,-0.650534 z m 3.76076,2.735575 -2.69256,-1.132414 -1.42783,3.394966 0.63217,0.265872 1.10779,-2.634027 c 0.0295,-0.07024 0.1127,-0.104156 0.18294,-0.07462 l 1.93162,0.812385 c 0.0702,0.02954 0.10415,0.112691 0.0746,0.182933 l -1.10779,2.634025 0.63216,0.265872 1.1078,-2.634025 c 0.17724,-0.421444 -0.0195,-0.903724 -0.44091,-1.080971 z m 4.28277,2.247371 -1.82181,-1.035426 c -0.39749,-0.225912 -0.89967,-0.0877 -1.12558,0.30979 l -1.00405,1.76661 c -0.22591,0.397486 -0.0877,0.899668 0.30979,1.125579 l 2.5395,1.443321 0.33887,-0.596231 -2.5395,-1.44332 c -0.0662,-0.03765 -0.0901,-0.124235 -0.0524,-0.190484 l 0.33259,-0.58519 2.66096,1.512351 0.67145,-1.181421 c 0.22592,-0.397488 0.0877,-0.89967 -0.30979,-1.125579 z m -2.68375,0.198419 0.33259,-0.58519 c 0.0377,-0.06625 0.12424,-0.09008 0.19048,-0.05242 l 1.82182,1.035426 c 0.0662,0.03765 0.0901,0.124235 0.0524,0.190482 l -0.33259,0.585189 z m 9.56531,4.859903 c 0.2931,-0.350888 0.24655,-0.869659 -0.10433,-1.162762 l -2.24179,-1.872601 c -0.35089,-0.293106 -0.86966,-0.246555 -1.16276,0.104333 l -0.62691,0.750512 c -0.29311,0.350887 -0.24656,0.869659 0.10433,1.162761 l 2.24178,1.872602 c 0.0585,0.04885 0.0665,0.138293 0.0177,0.196776 l -0.62691,0.750509 c -0.0488,0.05848 -0.1383,0.06651 -0.19678,0.01765 l -2.24178,-1.872602 c -0.0585,-0.04885 -0.0665,-0.138292 -0.0177,-0.196773 l 0.17098,-0.204687 -0.52633,-0.439653 -0.17098,0.204684 c -0.2931,0.350888 -0.24655,0.869659 0.10433,1.162762 l 2.24179,1.872602 c 0.35089,0.293103 0.86966,0.246554 1.16276,-0.104333 l 0.62692,-0.750512 c 0.2931,-0.350888 0.24655,-0.869659 -0.10434,-1.162762 L 175.07663,48.0308 c -0.0585,-0.04885 -0.0665,-0.138295 -0.0177,-0.196775 l 0.62691,-0.75051 c 0.0489,-0.05848 0.1383,-0.06651 0.19678,-0.01765 l 2.24178,1.872601 c 0.0585,0.04885 0.0665,0.138296 0.0177,0.196776 l -0.17097,0.204685 0.52633,0.439655 z m 1.5914,5.098434 1.6602,-1.53429 -0.46546,-0.503655 -2.08924,1.930791 c -0.056,0.05172 -0.14569,0.04818 -0.19741,-0.0078 l -1.42224,-1.538949 c -0.0517,-0.05596 -0.0482,-0.145695 0.008,-0.197413 l 2.08924,-1.930792 -0.46546,-0.503655 -2.08924,1.930791 c -0.33577,0.310306 -0.35628,0.830758 -0.046,1.16653 l 1.51705,1.641543 -0.46634,0.430983 c -0.056,0.05172 -0.1457,0.04818 -0.19742,-0.0078 l -1.54291,-1.669529 -0.50365,0.465461 1.54291,1.669526 c 0.3103,0.335772 0.83076,0.356285 1.16652,0.04598 l 1.49232,-1.379138 c 0,0 0.005,-0.0043 0.009,-0.0086 z m 3.89025,2.803705 c 0.36976,-0.268894 0.45102,-0.783373 0.18212,-1.153139 l -1.23243,-1.694762 c -0.2689,-0.369766 -0.78338,-0.451025 -1.15314,-0.182129 l -0.4314,0.313711 c -0.36976,0.268894 -0.45102,0.783373 -0.18213,1.153139 l 1.23244,1.694762 c 0.0448,0.06163 0.0308,0.150331 -0.0308,0.195146 l -0.4314,0.313711 c -0.0616,0.04482 -0.15033,0.03081 -0.19514,-0.03082 l -1.23244,-1.694762 c -0.0448,-0.06163 -0.0308,-0.150331 0.0308,-0.195146 l 0.11298,-0.08216 -0.40334,-0.554648 -0.11299,0.08216 c -0.36976,0.268896 -0.45102,0.783373 -0.18213,1.153138 l 1.23244,1.694765 c 0.26889,0.369766 0.78337,0.451022 1.15314,0.182129 l 0.43139,-0.313711 c 0.36977,-0.268897 0.45103,-0.783373 0.18213,-1.153139 l -1.23243,-1.694765 c -0.0448,-0.06163 -0.0308,-0.150331 0.0308,-0.195146 l 0.43139,-0.313711 c 0.0616,-0.04481 0.15033,-0.03081 0.19515,0.03082 l 1.23243,1.694765 c 0.0448,0.06163 0.0308,0.150331 -0.0308,0.195146 l -0.11298,0.08216 0.40334,0.554651 z m 1.70554,2.603328 0.58996,-0.349658 -0.77054,-1.300112 1.0379,-0.61514 -0.34966,-0.589968 -1.74805,1.036026 c 0,0 0,0 0,0 l -1.74804,1.036026 c -0.39331,0.233106 -0.52237,0.737719 -0.28926,1.13103 l 0.69931,1.179934 0.58997,-0.349661 -0.69932,-1.179933 c -0.0388,-0.06555 -0.0166,-0.152553 0.0489,-0.191405 l 1.86823,-1.107252 z m 2.2111,2.934242 -0.89402,-1.895221 c -0.19506,-0.413501 -0.68529,-0.589471 -1.09879,-0.394414 l -1.83779,0.866923 c -0.4135,0.195056 -0.58947,0.685286 -0.39441,1.098788 l 1.2462,2.641822 0.62025,-0.292587 -1.2462,-2.641822 c -0.0325,-0.06892 -0.002,-0.153437 0.0667,-0.185949 l 0.60877,-0.287166 1.3058,2.768169 1.22902,-0.579755 c 0.4135,-0.195056 0.58947,-0.685287 0.39442,-1.098788 z m -2.30899,-1.382213 0.60877,-0.287168 c 0.0689,-0.03251 0.15344,-0.0021 0.18595,0.06675 l 0.89401,1.895221 c 0.0325,0.06892 0.002,0.15344 -0.0668,0.185949 l -0.60876,0.287168 z m 4.53473,7.722794 -1.38128,-4.498041 -3.52073,1.081164 0.20132,0.655584 2.7316,-0.838835 c 0.0728,-0.02236 0.15219,0.01968 0.17456,0.09254 l 0.42873,1.396153 c 0.0224,0.07284 -0.0197,0.152186 -0.0925,0.174556 l -2.73161,0.838835 0.20132,0.655585 2.73161,-0.838835 c 0.0728,-0.02236 0.15218,0.01969 0.17455,0.09253 l 0.42688,1.390084 c 0.0242,0.07891 -0.0178,0.158255 -0.0907,0.180623 l -2.7316,0.838835 0.19946,0.649515 2.7316,-0.838835 c 0.43706,-0.134212 0.68101,-0.594402 0.5468,-1.031459 z m 0.20915,5.775068 c 0.45167,-0.07087 0.75843,-0.491805 0.68757,-0.943478 l -0.32482,-2.070174 c -0.0709,-0.451675 -0.4918,-0.758436 -0.94347,-0.687567 l -0.52696,0.08268 c -0.45167,0.07087 -0.75843,0.491805 -0.68756,0.943481 l 0.32481,2.070171 c 0.0118,0.07528 -0.0411,0.147855 -0.11636,0.159666 l -0.52695,0.08268 c -0.0753,0.0118 -0.14786,-0.04108 -0.15967,-0.116356 l -0.32481,-2.070174 c -0.0118,-0.07528 0.0411,-0.147854 0.11636,-0.159665 l 0.13801,-0.02164 -0.1063,-0.677513 -0.13801,0.02167 c -0.45168,0.07087 -0.75844,0.491805 -0.68757,0.943478 l 0.32481,2.070174 c 0.0709,0.451673 0.49181,0.758433 0.94348,0.687565 l 0.52695,-0.08268 c 0.45168,-0.07087 0.75844,-0.491805 0.68757,-0.943481 l -0.32481,-2.070174 c -0.0118,-0.07528 0.0411,-0.147854 0.11635,-0.159665 l 0.52696,-0.08268 c 0.0753,-0.0118 0.14785,0.04108 0.15966,0.116359 l 0.32481,2.070174 c 0.0118,0.07528 -0.0411,0.147854 -0.11635,0.159665 l -0.13801,0.02164 0.1063,0.677511 z m -2.63084,2.951025 -0.0881,4.57115 0.68567,0.0132 0.0749,-3.885477 3.89183,0.07498 0.0132,-0.685673 z m 3.07035,8.333356 0.41831,-2.890893 -0.67873,-0.09821 -0.41831,2.890893 c -0.0109,0.07542 -0.0829,0.129165 -0.15827,0.118253 l -0.66616,-0.09639 0.43832,-3.029153 -1.3449,-0.194604 c -0.45248,-0.06547 -0.86973,0.246285 -0.9352,0.698772 l -0.41832,2.890893 2.82805,0.409216 c 0.45249,0.06548 0.86974,-0.246285 0.93521,-0.698773 z m -2.98631,-0.290962 0.3201,-2.21216 c 0.0109,-0.07541 0.0829,-0.129167 0.15826,-0.118256 l 0.66616,0.09639 -0.3401,2.350424 z m 1.91561,4.895683 0.57151,-2.1609 1.1664,0.308491 0.17535,-0.663003 -4.72697,-1.250193 -0.74686,2.823903 c -0.11691,0.442002 0.14498,0.89223 0.58698,1.009131 l 1.96446,0.51956 c 0.442,0.116901 0.89223,-0.144987 1.00913,-0.586989 z m -2.79824,-0.595574 c -0.0737,-0.01947 -0.11882,-0.09711 -0.0993,-0.170776 l 0.53579,-2.025845 c 0.0195,-0.07367 0.0971,-0.11882 0.17078,-0.09934 l 1.96446,0.51956 c 0.0737,0.01947 0.11881,0.09711 0.0993,0.170778 l -0.5358,2.025843 c -0.0195,0.07367 -0.0971,0.118819 -0.17077,0.09934 z"
       id="text34"
       aria-label="Remote Sensing of Marine Systems Lab" />
    <path
       style="fill:none;stroke:#165016;stroke-width:0.964999;stroke-linecap:round;stroke-linejoin:miter;stroke-dasharray:none;stroke-opacity:1"
       d="m 154.04672,80.116204 c 1.11502,0.735017 2.47159,1.096769 3.80454,1.014544 1.78046,-0.109831 3.44908,-0.977979 5.22998,-1.080471 1.24,-0.07136 2.46809,0.232376 3.66861,0.550905 1.20051,0.318529 2.41434,0.656746 3.6564,0.656386 1.6817,-5.29e-4 3.32589,-0.622749 5.00599,-0.549364 1.48095,0.06469 2.89796,0.667027 4.37854,0.739589 1.64673,0.08071 3.26649,-0.503727 4.69227,-1.331589 0.79987,-0.464434 1.55418,-1.00729 2.2486,-1.618253"
       id="path35"
       sodipodi:nodetypes="czzzzzzc" />
    <path
       id="path36"
       style="fill:#ffe680;stroke-width:1"
       d="m 123.8616,54.915883 0.62772,-0.807066 9.07948,33.493207 -4.66304,0.76223 z"
       sodipodi:nodetypes="ccccc" />
    <path
       style="fill:none;stroke:#217821;stroke-width:0.665001;stroke-linecap:round;stroke-linejoin:miter;stroke-dasharray:none;stroke-opacity:1"
       d="m 154.1476,81.557974 c 1.11503,0.735009 2.47159,1.096761 3.80454,1.014544 1.78046,-0.109818 3.44908,-0.977934 5.22998,-1.080471 1.24,-0.07139 2.4681,0.232278 3.66862,0.550783 1.20053,0.318503 2.41434,0.656736 3.65639,0.656508 1.68169,-2.64e-4 3.32588,-0.62217 5.006,-0.549364 1.48095,0.06417 2.89806,0.665239 4.37854,0.739589 1.64707,0.08272 3.26994,-0.496922 4.69227,-1.331589 0.68847,-0.404019 1.3412,-0.868924 1.94806,-1.387515"
       id="path37"
       sodipodi:nodetypes="czzzzzzc" />
    <path
       id="path38"
       style="fill:none;stroke:none;stroke-width:1"
       d="m 150.71198,116.6021 a 37.124999,37.124999 0 0 1 -37.125,-37.124991 37.124999,37.124999 0 0 1 37.125,-37.124997 37.124999,37.124999 0 0 1 37.125,37.124997 37.124999,37.124999 0 0 1 -37.125,37.124991 z" />
    <g
       id="g41"
       transform="matrix(0.37030609,0,0,0.37030609,18.603187,-69.008575)">
      <path
         id="rect38"
         style="stroke-width:3.77953"
         d="m 281.4176,387.11914 h 1.69938 v 31.6085 h -1.69938 z" />
      <path
         id="path39"
         style="fill:#aa0044;stroke-width:3.77953"
         d="m 270.88144,417.36813 h 34.32751 l -7.16375,12.57543 h -23.58188 z"
         sodipodi:nodetypes="ccccc" />
      <path
         id="path40"
         style="fill:#ff8080;stroke-width:3.77953"
         d="m 283.57926,387.45901 17.79134,28.6932 h -17.79134 v -19.3466 z"
         sodipodi:nodetypes="ccccc" />
      <path
         id="path41"
         style="fill:#ff8080;stroke-width:2.5841"
         d="m 280.9351,387.45901 -8.3167,28.6932 h 8.3167 v -19.3466 z"
         sodipodi:nodetypes="ccccc" />
    </g>
    <path
       id="path42"
       style="fill:#cccccc;stroke:none;stroke-width:0.2;stroke-dasharray:none;stroke-opacity:1"
       d="m 158.73616,57.545527 c -2.14526,2.243486 -2.53921,-0.555951 -4.15329,1.030703 -1.61408,1.586653 -3.67784,1.132601 -4.29639,0.646371 -0.61856,-0.48623 -2.29106,-1.354021 -3.28099,-1.677074 -0.98994,-0.323054 -2.10969,0.318913 -2.72833,-0.07195 -0.61864,-0.390866 -2.13116,-0.546388 -2.13116,-1.893726 0,-1.347337 1.25888,-1.819904 1.87752,-2.115658 0.61864,-0.295754 1.37984,0.580234 2.36977,0.383997 0.98994,-0.196236 1.82815,-1.847418 2.94205,-1.945071 1.11389,-0.09765 1.7094,0.177512 3.47208,0.80717 1.76267,0.629655 3.39329,-1.233768 4.85079,0.650258 1.4575,1.884027 3.22321,1.941497 1.07795,4.184984 z"
       sodipodi:nodetypes="zzzzzzzzzzzz" />
    <path
       id="path43"
       style="fill:#ffdd55;stroke-width:1"
       d="m 126.93008,51.77639 1.25543,-1.076086 16.43275,28.583558 -3.25068,3.85598 z"
       sodipodi:nodetypes="ccccc" />
    <path
       id="path44"
       style="fill:#fff6d5;stroke-width:1"
       d="m 125.88062,53.005195 0.71739,-0.717391 14.7962,31.206521 -4.03533,2.421197 z"
       sodipodi:nodetypes="ccccc" />
    <path
       id="path45"
       style="fill:#ffeeaa;stroke-width:1"
       d="m 124.86712,53.848221 0.85191,-0.896739 11.5231,33.044836 -3.54212,1.479621 z"
       sodipodi:nodetypes="ccccc" />
    <path
       id="path46"
       style="fill:#b3b3b3;stroke:none;stroke-width:0.2;stroke-dasharray:none;stroke-opacity:1"
       d="m 148.29471,64.136012 c -1.13072,1.102124 -2.24604,-0.17407 -3.45579,0.142975 -1.20974,0.317048 -3.1825,0.839137 -4.29639,0.646372 -1.1139,-0.192765 -2.29106,-1.354021 -3.28099,-1.677075 -0.98994,-0.323053 -2.10969,0.318913 -2.72833,-0.07195 -0.61864,-0.390866 -2.13116,-0.546388 -2.13116,-1.893726 0,-1.347338 1.25888,-1.819905 1.87752,-2.115659 0.61864,-0.295754 1.35794,-0.775525 2.34788,-0.971761 0.98993,-0.196237 1.85004,1.09584 2.96394,0.998188 1.11389,-0.09765 1.7094,-1.409988 3.47208,-0.78033 1.76267,0.629655 3.39329,-1.233768 4.85079,0.650258 1.4575,1.884027 1.51117,3.970586 0.38045,5.072711 z"
       sodipodi:nodetypes="zzzzzzzzzzzz" />
    <path
       style="fill:#5599ff;stroke:none;stroke-width:0.264583px;stroke-linecap:butt;stroke-linejoin:miter;stroke-opacity:1"
       d="m 142.57404,86.198409 c 3.82016,-3.428389 6.17296,-8.440669 6.3698,-13.56987 5.83149,5.507352 12.94807,9.645335 20.61905,11.989098 5.58657,1.706902 11.46071,2.468415 17.29786,2.242463 -5.8927,2.623915 -12.57973,3.430778 -18.92742,2.283796 -6.23195,-1.126067 -12.11224,-4.129037 -16.67823,-8.517305 -1.13364,3.163832 -3.06756,6.037342 -5.57174,8.278786 -4.60317,4.120205 -11.15584,5.95934 -17.23068,4.836118 -5.98141,-1.105951 -11.36852,-5.059606 -14.23,-10.425123 -0.0741,-0.138875 -0.0583,-0.148477 0.0352,-0.02183 0.59594,0.807496 1.25752,1.564976 1.97429,2.266329 4.98576,4.87853 17.78111,6.286597 23.70843,2.609 0.93278,-0.578739 1.81563,-1.237509 2.63344,-1.971452 z"
       id="path47"
       sodipodi:nodetypes="scscscscs" />
    <path
       id="path48"
       style="fill:#ececec;stroke:none;stroke-width:0.2;stroke-dasharray:none;stroke-opacity:1"
       d="m 155.28195,56.772361 c 2.14526,-2.243486 2.53921,0.555951 4.15329,-1.030703 1.61408,-1.586653 3.67784,-1.132601 4.29639,-0.646371 0.61856,0.48623 2.29105,1.354021 3.28099,1.677074 0.98993,0.323054 2.10969,-0.318913 2.72833,0.07195 0.61864,0.390866 2.13115,0.546388 2.13115,1.893726 0,1.347338 -1.25888,1.819905 -1.87751,2.115658 -0.61864,0.295754 -1.37984,-0.580233 -2.36978,-0.383997 -0.98993,0.196236 -1.82815,1.847418 -2.94204,1.945071 -1.11389,0.09765 -1.7094,-0.177512 -3.47208,-0.80717 -1.76268,-0.629655 -3.39329,1.233768 -4.85079,-0.650258 -1.4575,-1.884027 -3.22322,-1.941497 -1.07795,-4.184984 z"
       sodipodi:nodetypes="zzzzzzzzzzzz" />
    <path
       style="fill:#0055d4;stroke:none;stroke-width:0.264583px;stroke-linecap:butt;stroke-linejoin:miter;stroke-opacity:1"
       d="m 142.36821,82.075288 c 3.11652,-3.146565 5.18013,-7.318626 5.78968,-11.705198 6.52473,4.392136 13.51626,8.090339 20.81871,11.012154 5.75855,2.304073 11.70995,4.125933 17.77149,5.440256 -2.71568,0.480759 -5.48297,0.669438 -8.23877,0.56174 -10.34518,-0.404299 -20.44955,-5.176734 -27.33323,-12.90986 -0.87967,3.880149 -2.88049,7.49934 -5.69856,10.307876 -4.00077,3.987234 -9.65469,6.255353 -15.29936,6.167702 -0.40884,-0.0063 -1.07118,-0.04097 -1.47847,-0.07727 -5.62305,-0.501229 -11.00973,-3.346365 -14.57307,-7.728918 3.91732,3.39826 9.14962,5.239551 14.33181,5.04349 5.1822,-0.196062 10.26042,-2.427438 13.90977,-6.111972 z"
       id="path49"
       sodipodi:nodetypes="scscscscs" />
    <path
       id="circle146"
       style="fill:#f9f9f9;stroke-width:0.176666;stroke-linecap:round"
       d="m 148.08667,74.653183 a 0.4438632,0.4438632 0 0 1 -0.44386,0.443865 0.4438632,0.4438632 0 0 1 -0.44387,-0.443865 0.4438632,0.4438632 0 0 1 0.44387,-0.443862 0.4438632,0.4438632 0 0 1 0.44386,0.443862 z" />
    <path
       id="circle147"
       style="fill:#f9f9f9;stroke-width:0.164047;stroke-linecap:round"
       d="m 157.85582,76.396213 a 0.41215868,0.41215868 0 0 1 -0.41216,0.41216 0.41215868,0.41215868 0 0 1 -0.41216,-0.41216 0.41215868,0.41215868 0 0 1 0.41216,-0.412157 0.41215868,0.41215868 0 0 1 0.41216,0.412157 z" />
    <path
       id="circle148"
       style="fill:#f9f9f9;stroke-width:0.0788686;stroke-linecap:round"
       d="m 145.39845,78.649193 a 0.19815321,0.19815321 0 0 1 -0.19815,0.198155 0.19815321,0.19815321 0 0 1 -0.19815,-0.198155 0.19815321,0.19815321 0 0 1 0.19815,-0.198154 0.19815321,0.19815321 0 0 1 0.19815,0.198154 z" />
    <path
       id="circle149"
       style="fill:#f9f9f9;stroke-width:0.164047;stroke-linecap:round"
       d="m 147.27249,76.396213 a 0.41215868,0.41215868 0 0 1 -0.41216,0.41216 0.41215868,0.41215868 0 0 1 -0.41216,-0.41216 0.41215868,0.41215868 0 0 1 0.41216,-0.412157 0.41215868,0.41215868 0 0 1 0.41216,0.412157 z" />
    <path
       id="circle150"
       style="fill:#f9f9f9;stroke-width:0.0441664;stroke-linecap:round"
       d="m 144.35567,80.914106 a 0.11096579,0.11096579 0 0 1 -0.11096,0.110966 0.11096579,0.11096579 0 0 1 -0.11097,-0.110966 0.11096579,0.11096579 0 0 1 0.11097,-0.110966 0.11096579,0.11096579 0 0 1 0.11096,0.110966 z" />
    <path
       id="circle151"
       style="fill:#f9f9f9;stroke-width:0.0441664;stroke-linecap:round"
       d="m 147.84315,73.653762 a 0.11096579,0.11096579 0 0 1 -0.11096,0.110966 0.11096579,0.11096579 0 0 1 -0.11097,-0.110966 0.11096579,0.11096579 0 0 1 0.11097,-0.110966 0.11096579,0.11096579 0 0 1 0.11096,0.110966 z" />
    <path
       id="circle257"
       style="fill:#f9f9f9;stroke-width:0.113571;stroke-linecap:round"
       d="m 148.35044,70.847925 a 0.28534061,0.28534061 0 0 1 -0.28534,0.285342 0.28534061,0.28534061 0 0 1 -0.28534,-0.285342 0.28534061,0.28534061 0 0 1 0.28534,-0.28534 0.28534061,0.28534061 0 0 1 0.28534,0.28534 z" />
    <path
       id="circle258"
       style="fill:#f9f9f9;stroke-width:0.075714;stroke-linecap:round"
       d="m 148.92111,72.464849 a 0.19022708,0.19022708 0 0 1 -0.19023,0.190227 0.19022708,0.19022708 0 0 1 -0.19022,-0.190227 0.19022708,0.19022708 0 0 1 0.19022,-0.190228 0.19022708,0.19022708 0 0 1 0.19023,0.190228 z" />
    <path
       id="circle259"
       style="fill:#f9f9f9;stroke-width:0.088333;stroke-linecap:round"
       d="m 152.53394,75.517376 a 0.22193159,0.22193159 0 0 1 -0.22193,0.22193 0.22193159,0.22193159 0 0 1 -0.22193,-0.22193 0.22193159,0.22193159 0 0 1 0.22193,-0.221933 0.22193159,0.22193159 0 0 1 0.22193,0.221933 z" />
    <path
       id="circle260"
       style="fill:#f9f9f9;stroke-width:0.100952;stroke-linecap:round"
       d="m 149.10082,75.352236 a 0.2536361,0.2536361 0 0 1 -0.25363,0.253638 0.2536361,0.2536361 0 0 1 -0.25364,-0.253638 0.2536361,0.2536361 0 0 1 0.25364,-0.253635 0.2536361,0.2536361 0 0 1 0.25363,0.253635 z" />
    <path
       id="circle261"
       style="fill:#f9f9f9;stroke-width:0.0845204;stroke-linecap:round"
       d="m 160.27614,85.130048 a 0.21235274,0.21235274 0 0 1 -0.21236,0.212352 0.21235274,0.21235274 0 0 1 -0.21235,-0.212352 0.21235274,0.21235274 0 0 1 0.21235,-0.212354 0.21235274,0.21235274 0 0 1 0.21236,0.212354 z" />
    <path
       id="circle262"
       style="fill:#f9f9f9;stroke-width:0.0788686;stroke-linecap:round"
       d="m 147.42755,78.712593 a 0.19815321,0.19815321 0 0 1 -0.19815,0.198154 0.19815321,0.19815321 0 0 1 -0.19816,-0.198154 0.19815321,0.19815321 0 0 1 0.19816,-0.198152 0.19815321,0.19815321 0 0 1 0.19815,0.198152 z" />
    <path
       id="circle263"
       style="fill:#f9f9f9;stroke-width:0.164047;stroke-linecap:round"
       d="m 151.58146,74.633726 a 0.41215868,0.41215868 0 0 1 -0.41216,0.412157 0.41215868,0.41215868 0 0 1 -0.41216,-0.412157 0.41215868,0.41215868 0 0 1 0.41216,-0.41216 0.41215868,0.41215868 0 0 1 0.41216,0.41216 z" />
    <path
       id="circle264"
       style="fill:#f9f9f9;stroke-width:0.0441664;stroke-linecap:round"
       d="m 144.54591,83.070016 a 0.11096579,0.11096579 0 0 1 -0.11097,0.110966 0.11096579,0.11096579 0 0 1 -0.11096,-0.110966 0.11096579,0.11096579 0 0 1 0.11096,-0.110967 0.11096579,0.11096579 0 0 1 0.11097,0.110967 z" />
    <path
       id="circle265"
       style="fill:#f9f9f9;stroke-width:0.0441664;stroke-linecap:round"
       d="m 183.18215,87.383753 a 0.11096579,0.11096579 0 0 1 -0.11097,0.110966 0.11096579,0.11096579 0 0 1 -0.11097,-0.110966 0.11096579,0.11096579 0 0 1 0.11097,-0.110966 0.11096579,0.11096579 0 0 1 0.11097,0.110966 z" />
    <path
       id="circle266"
       style="fill:#f9f9f9;stroke-width:0.113571;stroke-linecap:round"
       d="m 152.66226,78.076553 a 0.28534061,0.28534061 0 0 1 -0.28534,0.285342 0.28534061,0.28534061 0 0 1 -0.28535,-0.285342 0.28534061,0.28534061 0 0 1 0.28535,-0.28534 0.28534061,0.28534061 0 0 1 0.28534,0.28534 z" />
    <path
       id="circle267"
       style="fill:#f9f9f9;stroke-width:0.075714;stroke-linecap:round"
       d="m 153.68582,79.027465 a 0.19022708,0.19022708 0 0 1 -0.19022,0.190228 0.19022708,0.19022708 0 0 1 -0.19023,-0.190228 0.19022708,0.19022708 0 0 1 0.19023,-0.190227 0.19022708,0.19022708 0 0 1 0.19022,0.190227 z" />
    <path
       id="circle268"
       style="fill:#f9f9f9;stroke-width:0.088333;stroke-linecap:round"
       d="m 150.83192,75.942752 a 0.22193159,0.22193159 0 0 1 -0.22194,0.221932 0.22193159,0.22193159 0 0 1 -0.22193,-0.221932 0.22193159,0.22193159 0 0 1 0.22193,-0.22193 0.22193159,0.22193159 0 0 1 0.22194,0.22193 z" />
    <path
       id="circle269"
       style="fill:#f9f9f9;stroke-width:0.264999;stroke-linecap:round"
       d="m 120.5494,88.54657 a 0.66579479,0.66579479 0 0 1 -0.66579,0.665795 0.66579479,0.66579479 0 0 1 -0.6658,-0.665795 0.66579479,0.66579479 0 0 1 0.6658,-0.665795 0.66579479,0.66579479 0 0 1 0.66579,0.665795 z" />
    <path
       id="circle270"
       style="fill:#f9f9f9;stroke-width:0.075714;stroke-linecap:round"
       d="m 136.21599,87.181005 a 0.19022708,0.19022708 0 0 1 -0.19023,0.190225 0.19022708,0.19022708 0 0 1 -0.19022,-0.190225 0.19022708,0.19022708 0 0 1 0.19022,-0.190227 0.19022708,0.19022708 0 0 1 0.19023,0.190227 z" />
    <path
       id="circle271"
       style="fill:#f9f9f9;stroke-width:0.0788686;stroke-linecap:round"
       d="m 131.73232,90.400979 a 0.19815321,0.19815321 0 0 1 -0.19816,0.198152 0.19815321,0.19815321 0 0 1 -0.19815,-0.198152 0.19815321,0.19815321 0 0 1 0.19815,-0.198154 0.19815321,0.19815321 0 0 1 0.19816,0.198154 z" />
    <path
       id="circle272"
       style="fill:#f9f9f9;stroke-width:0.0946423;stroke-linecap:round"
       d="m 132.19548,89.479589 a 0.23778385,0.23778385 0 0 1 -0.23778,0.237784 0.23778385,0.23778385 0 0 1 -0.23778,-0.237784 0.23778385,0.23778385 0 0 1 0.23778,-0.237784 0.23778385,0.23778385 0 0 1 0.23778,0.237784 z" />
    <path
       id="circle273"
       style="fill:#f9f9f9;stroke-width:0.0441664;stroke-linecap:round"
       d="m 125.45977,89.410906 a 0.11096579,0.11096579 0 0 1 -0.11097,0.110966 0.11096579,0.11096579 0 0 1 -0.11097,-0.110966 0.11096579,0.11096579 0 0 1 0.11097,-0.110964 0.11096579,0.11096579 0 0 1 0.11097,0.110964 z" />
    <path
       id="circle274"
       style="fill:#f9f9f9;stroke-width:0.0441664;stroke-linecap:round"
       d="m 130.46908,90.266928 a 0.11096579,0.11096579 0 0 1 -0.11097,0.110964 0.11096579,0.11096579 0 0 1 -0.11096,-0.110964 0.11096579,0.11096579 0 0 1 0.11096,-0.110966 0.11096579,0.11096579 0 0 1 0.11097,0.110966 z" />
    <path
       id="circle276"
       style="fill:#f9f9f9;stroke-width:0.113571;stroke-linecap:round"
       d="m 127.02765,88.195558 a 0.28534061,0.28534061 0 0 1 -0.28534,0.28534 0.28534061,0.28534061 0 0 1 -0.28535,-0.28534 0.28534061,0.28534061 0 0 1 0.28535,-0.28534 0.28534061,0.28534061 0 0 1 0.28534,0.28534 z" />
    <path
       id="circle277"
       style="fill:#f9f9f9;stroke-width:0.075714;stroke-linecap:round"
       d="m 127.59833,89.812482 a 0.19022708,0.19022708 0 0 1 -0.19023,0.190225 0.19022708,0.19022708 0 0 1 -0.19023,-0.190225 0.19022708,0.19022708 0 0 1 0.19023,-0.190227 0.19022708,0.19022708 0 0 1 0.19023,0.190227 z" />
    <path
       id="circle278"
       style="fill:#f9f9f9;stroke-width:0.088333;stroke-linecap:round"
       d="m 137.82987,85.878128 a 0.22193159,0.22193159 0 0 1 -0.22193,0.221933 0.22193159,0.22193159 0 0 1 -0.22193,-0.221933 0.22193159,0.22193159 0 0 1 0.22193,-0.221932 0.22193159,0.22193159 0 0 1 0.22193,0.221932 z" />
    <path
       id="circle279"
       style="fill:#f9f9f9;stroke-width:0.0252379;stroke-linecap:round"
       d="m 139.96991,84.800174 a 0.06340901,0.06340901 0 0 1 -0.0634,0.06341 0.06340901,0.06340901 0 0 1 -0.0634,-0.06341 0.06340901,0.06340901 0 0 1 0.0634,-0.06341 0.06340901,0.06340901 0 0 1 0.0634,0.06341 z" />
    <path
       id="circle280"
       style="fill:#f9f9f9;stroke-width:0.164047;stroke-linecap:round"
       d="m 146.69583,79.883694 a 0.41215868,0.41215868 0 0 1 -0.41216,0.41216 0.41215868,0.41215868 0 0 1 -0.41216,-0.41216 0.41215868,0.41215868 0 0 1 0.41216,-0.412157 0.41215868,0.41215868 0 0 1 0.41216,0.412157 z" />
    <path
       id="circle281"
       style="fill:#f9f9f9;stroke-width:0.0788686;stroke-linecap:round"
       d="m 133.4602,90.670455 a 0.19815321,0.19815321 0 0 1 -0.19815,0.198154 0.19815321,0.19815321 0 0 1 -0.19816,-0.198154 0.19815321,0.19815321 0 0 1 0.19816,-0.198152 0.19815321,0.19815321 0 0 1 0.19815,0.198152 z" />
    <path
       id="circle282"
       style="fill:#f9f9f9;stroke-width:0.123035;stroke-linecap:round"
       d="m 135.12816,88.520522 a 0.30911903,0.30911903 0 0 1 -0.30912,0.309118 0.30911903,0.30911903 0 0 1 -0.30912,-0.309118 0.30911903,0.30911903 0 0 1 0.30912,-0.309118 0.30911903,0.30911903 0 0 1 0.30912,0.309118 z" />
    <path
       id="circle320"
       style="fill:#f9f9f9;stroke-width:0.0441664;stroke-linecap:round"
       d="m 139.01196,88.496733 a 0.11096579,0.11096579 0 0 1 -0.11097,0.110967 0.11096579,0.11096579 0 0 1 -0.11096,-0.110967 0.11096579,0.11096579 0 0 1 0.11096,-0.110963 0.11096579,0.11096579 0 0 1 0.11097,0.110963 z" />
    <path
       id="circle321"
       style="fill:#f9f9f9;stroke-width:0.0441664;stroke-linecap:round"
       d="m 133.25908,89.379206 a 0.11096579,0.11096579 0 0 1 -0.11097,0.110966 0.11096579,0.11096579 0 0 1 -0.11096,-0.110966 0.11096579,0.11096579 0 0 1 0.11096,-0.110966 0.11096579,0.11096579 0 0 1 0.11097,0.110966 z" />
    <path
       id="circle322"
       style="fill:#f9f9f9;stroke-width:0.05994;stroke-linecap:round"
       d="m 137.04629,86.840182 a 0.15059641,0.15059641 0 0 1 -0.1506,0.150596 0.15059641,0.15059641 0 0 1 -0.1506,-0.150596 0.15059641,0.15059641 0 0 1 0.1506,-0.150595 0.15059641,0.15059641 0 0 1 0.1506,0.150595 z" />
    <path
       id="circle323"
       style="fill:#f9f9f9;stroke-width:0.075714;stroke-linecap:round"
       d="m 146.35305,84.639381 a 0.19022708,0.19022708 0 0 1 -0.19022,0.190225 0.19022708,0.19022708 0 0 1 -0.19023,-0.190225 0.19022708,0.19022708 0 0 1 0.19023,-0.190228 0.19022708,0.19022708 0 0 1 0.19022,0.190228 z" />
    <path
       id="circle324"
       style="fill:#f9f9f9;stroke-width:0.088333;stroke-linecap:round"
       d="m 144.0915,86.004946 a 0.22193159,0.22193159 0 0 1 -0.22193,0.221932 0.22193159,0.22193159 0 0 1 -0.22193,-0.221932 0.22193159,0.22193159 0 0 1 0.22193,-0.221933 0.22193159,0.22193159 0 0 1 0.22193,0.221933 z" />
    <path
       id="circle325"
       style="fill:#f9f9f9;stroke-width:0.264999;stroke-linecap:round"
       d="m 175.47897,85.719611 a 0.66579479,0.66579479 0 0 1 -0.66579,0.665795 0.66579479,0.66579479 0 0 1 -0.6658,-0.665795 0.66579479,0.66579479 0 0 1 0.6658,-0.665795 0.66579479,0.66579479 0 0 1 0.66579,0.665795 z" />
    <path
       id="circle326"
       style="fill:#f9f9f9;stroke-width:0.164047;stroke-linecap:round"
       d="m 176.49808,87.683026 a 0.41215868,0.41215868 0 0 1 -0.41216,0.412157 0.41215868,0.41215868 0 0 1 -0.41216,-0.412157 0.41215868,0.41215868 0 0 1 0.41216,-0.41216 0.41215868,0.41215868 0 0 1 0.41216,0.41216 z" />
    <path
       id="circle327"
       style="fill:#f9f9f9;stroke-width:0.0788686;stroke-linecap:round"
       d="m 162.98238,80.94017 a 0.19815321,0.19815321 0 0 1 -0.19815,0.198154 0.19815321,0.19815321 0 0 1 -0.19816,-0.198154 0.19815321,0.19815321 0 0 1 0.19816,-0.198152 0.19815321,0.19815321 0 0 1 0.19815,0.198152 z" />
    <path
       id="circle328"
       style="fill:#f9f9f9;stroke-width:0.164047;stroke-linecap:round"
       d="m 163.71344,86.542558 a 0.41215868,0.41215868 0 0 1 -0.41216,0.41216 0.41215868,0.41215868 0 0 1 -0.41216,-0.41216 0.41215868,0.41215868 0 0 1 0.41216,-0.412157 0.41215868,0.41215868 0 0 1 0.41216,0.412157 z" />
    <path
       id="circle329"
       style="fill:#f9f9f9;stroke-width:0.0441664;stroke-linecap:round"
       d="m 166.48541,84.940572 a 0.11096579,0.11096579 0 0 1 -0.11096,0.110966 0.11096579,0.11096579 0 0 1 -0.11097,-0.110966 0.11096579,0.11096579 0 0 1 0.11097,-0.110966 0.11096579,0.11096579 0 0 1 0.11096,0.110966 z" />
    <path
       id="circle330"
       style="fill:#f9f9f9;stroke-width:0.113571;stroke-linecap:round"
       d="m 166.9927,82.134737 a 0.28534061,0.28534061 0 0 1 -0.28534,0.28534 0.28534061,0.28534061 0 0 1 -0.28534,-0.28534 0.28534061,0.28534061 0 0 1 0.28534,-0.285342 0.28534061,0.28534061 0 0 1 0.28534,0.285342 z" />
    <path
       id="circle331"
       style="fill:#f9f9f9;stroke-width:0.075714;stroke-linecap:round"
       d="m 167.56337,83.751659 a 0.19022708,0.19022708 0 0 1 -0.19023,0.190227 0.19022708,0.19022708 0 0 1 -0.19022,-0.190227 0.19022708,0.19022708 0 0 1 0.19022,-0.190228 0.19022708,0.19022708 0 0 1 0.19023,0.190228 z" />
    <path
       id="circle332"
       style="fill:#f9f9f9;stroke-width:0.088333;stroke-linecap:round"
       d="m 170.7233,86.004962 a 0.22193159,0.22193159 0 0 1 -0.22193,0.221932 0.22193159,0.22193159 0 0 1 -0.22193,-0.221932 0.22193159,0.22193159 0 0 1 0.22193,-0.221933 0.22193159,0.22193159 0 0 1 0.22193,0.221933 z" />
    <path
       id="circle333"
       style="fill:#f9f9f9;stroke-width:0.113571;stroke-linecap:round"
       d="m 169.08519,87.270858 a 0.28534061,0.28534061 0 0 1 -0.28534,0.28534 0.28534061,0.28534061 0 0 1 -0.28534,-0.28534 0.28534061,0.28534061 0 0 1 0.28534,-0.285343 0.28534061,0.28534061 0 0 1 0.28534,0.285343 z" />
    <path
       id="circle334"
       style="fill:#f9f9f9;stroke-width:0.0441664;stroke-linecap:round"
       d="m 145.54381,81.801828 a 0.11096579,0.11096579 0 0 1 -0.11096,0.110964 0.11096579,0.11096579 0 0 1 -0.11097,-0.110964 0.11096579,0.11096579 0 0 1 0.11097,-0.110966 0.11096579,0.11096579 0 0 1 0.11096,0.110966 z" />
    <path
       id="circle335"
       style="fill:#f9f9f9;stroke-width:0.151428;stroke-linecap:round"
       d="m 152.52922,71.656452 a 0.38045416,0.38045416 0 0 1 -0.38046,0.380455 0.38045416,0.38045416 0 0 1 -0.38045,-0.380455 0.38045416,0.38045416 0 0 1 0.38045,-0.380455 0.38045416,0.38045416 0 0 1 0.38046,0.380455 z" />
    <path
       id="circle336"
       style="fill:#f9f9f9;stroke-width:0.121633;stroke-linecap:round"
       d="m 159.87708,82.526638 a 0.30559549,0.30559549 0 0 1 -0.30559,0.305594 0.30559549,0.30559549 0 0 1 -0.3056,-0.305594 0.30559549,0.30559549 0 0 1 0.3056,-0.305596 0.30559549,0.30559549 0 0 1 0.30559,0.305596 z" />
    <path
       id="circle337"
       style="fill:#f9f9f9;stroke-width:0.0788686;stroke-linecap:round"
       d="m 145.47694,85.877821 a 0.19815321,0.19815321 0 0 1 -0.19815,0.198155 0.19815321,0.19815321 0 0 1 -0.19816,-0.198155 0.19815321,0.19815321 0 0 1 0.19816,-0.198151 0.19815321,0.19815321 0 0 1 0.19815,0.198151 z" />
    <path
       id="circle338"
       style="fill:#f9f9f9;stroke-width:0.0709657;stroke-linecap:round"
       d="m 149.64279,82.478934 a 0.17829785,0.17829785 0 0 1 -0.17829,0.178297 0.17829785,0.17829785 0 0 1 -0.1783,-0.178297 0.17829785,0.17829785 0 0 1 0.1783,-0.178298 0.17829785,0.17829785 0 0 1 0.17829,0.178298 z" />
    <path
       id="circle339"
       style="fill:#f9f9f9;stroke-width:0.0441664;stroke-linecap:round"
       d="m 151.04874,80.602109 a 0.11096579,0.11096579 0 0 1 -0.11096,0.110966 0.11096579,0.11096579 0 0 1 -0.11097,-0.110966 0.11096579,0.11096579 0 0 1 0.11097,-0.110963 0.11096579,0.11096579 0 0 1 0.11096,0.110963 z" />
    <path
       id="circle340"
       style="fill:#f9f9f9;stroke-width:0.0441664;stroke-linecap:round"
       d="m 147.92164,80.88239 a 0.11096579,0.11096579 0 0 1 -0.11097,0.110967 0.11096579,0.11096579 0 0 1 -0.11096,-0.110967 0.11096579,0.11096579 0 0 1 0.11096,-0.110966 0.11096579,0.11096579 0 0 1 0.11097,0.110966 z" />
    <path
       id="circle341"
       style="fill:#f9f9f9;stroke-width:0.088333;stroke-linecap:round"
       d="m 178.65817,86.564989 a 0.22193159,0.22193159 0 0 1 -0.22193,0.221933 0.22193159,0.22193159 0 0 1 -0.22193,-0.221933 0.22193159,0.22193159 0 0 1 0.22193,-0.221932 0.22193159,0.22193159 0 0 1 0.22193,0.221932 z" />
    <path
       id="circle342"
       style="fill:#f9f9f9;stroke-width:0.176666;stroke-linecap:round"
       d="m 117.14039,86.105326 a 0.4438632,0.4438632 0 0 1 -0.44386,0.443865 0.4438632,0.4438632 0 0 1 -0.44387,-0.443865 0.4438632,0.4438632 0 0 1 0.44387,-0.443862 0.4438632,0.4438632 0 0 1 0.44386,0.443862 z" />
    <path
       id="circle343"
       style="fill:#f9f9f9;stroke-width:0.0883327;stroke-linecap:round"
       d="m 141.35134,86.166466 a 0.22193159,0.22193159 0 0 1 -0.22193,0.221932 0.22193159,0.22193159 0 0 1 -0.22193,-0.221932 0.22193159,0.22193159 0 0 1 0.22193,-0.22193 0.22193159,0.22193159 0 0 1 0.22193,0.22193 z" />
    <path
       id="circle344"
       style="fill:#f9f9f9;stroke-width:0.0788686;stroke-linecap:round"
       d="m 126.43687,91.558193 a 0.19815321,0.19815321 0 0 1 -0.19815,0.198151 0.19815321,0.19815321 0 0 1 -0.19816,-0.198151 0.19815321,0.19815321 0 0 1 0.19816,-0.198155 0.19815321,0.19815321 0 0 1 0.19815,0.198155 z" />
    <path
       id="circle345"
       style="fill:#f9f9f9;stroke-width:0.0977971;stroke-linecap:round"
       d="m 127.97801,89.471659 a 0.24570998,0.24570998 0 0 1 -0.24571,0.245711 0.24570998,0.24570998 0 0 1 -0.24571,-0.245711 0.24570998,0.24570998 0 0 1 0.24571,-0.24571 0.24570998,0.24570998 0 0 1 0.24571,0.24571 z" />
    <path
       id="circle346"
       style="fill:#f9f9f9;stroke-width:0.0441664;stroke-linecap:round"
       d="m 119.07593,86.854925 a 0.11096579,0.11096579 0 0 1 -0.11097,0.110966 0.11096579,0.11096579 0 0 1 -0.11097,-0.110966 0.11096579,0.11096579 0 0 1 0.11097,-0.110964 0.11096579,0.11096579 0 0 1 0.11097,0.110964 z" />
    <path
       id="circle347"
       style="fill:#f9f9f9;stroke-width:0.0441664;stroke-linecap:round"
       d="m 126.23574,90.266928 a 0.11096579,0.11096579 0 0 1 -0.11096,0.110964 0.11096579,0.11096579 0 0 1 -0.11097,-0.110964 0.11096579,0.11096579 0 0 1 0.11097,-0.110966 0.11096579,0.11096579 0 0 1 0.11096,0.110966 z" />
    <path
       id="circle348"
       style="fill:#f9f9f9;stroke-width:0.113571;stroke-linecap:round"
       d="m 141.14077,83.721446 a 0.28534061,0.28534061 0 0 1 -0.28534,0.28534 0.28534061,0.28534061 0 0 1 -0.28534,-0.28534 0.28534061,0.28534061 0 0 1 0.28534,-0.285342 0.28534061,0.28534061 0 0 1 0.28534,0.285342 z" />
    <path
       id="circle349"
       style="fill:#f9f9f9;stroke-width:0.075714;stroke-linecap:round"
       d="m 123.36499,89.812482 a 0.19022708,0.19022708 0 0 1 -0.19023,0.190225 0.19022708,0.19022708 0 0 1 -0.19022,-0.190225 0.19022708,0.19022708 0 0 1 0.19022,-0.190227 0.19022708,0.19022708 0 0 1 0.19023,0.190227 z" />
    <path
       id="circle350"
       style="fill:#f9f9f9;stroke-width:0.088333;stroke-linecap:round"
       d="m 130.02977,89.143708 a 0.22193159,0.22193159 0 0 1 -0.22193,0.22193 0.22193159,0.22193159 0 0 1 -0.22193,-0.22193 0.22193159,0.22193159 0 0 1 0.22193,-0.221932 0.22193159,0.22193159 0 0 1 0.22193,0.221932 z" />
    <path
       id="circle351"
       style="fill:#f9f9f9;stroke-width:0.138809;stroke-linecap:round"
       d="m 142.63232,86.004946 a 0.34874964,0.34874964 0 0 1 -0.34875,0.34875 0.34874964,0.34874964 0 0 1 -0.34875,-0.34875 0.34874964,0.34874964 0 0 1 0.34875,-0.34875 0.34874964,0.34874964 0 0 1 0.34875,0.34875 z" />
    <path
       id="circle352"
       style="fill:#f9f9f9;stroke-width:0.05994;stroke-linecap:round"
       d="m 140.30659,87.278785 a 0.15059643,0.15059643 0 0 1 -0.1506,0.150598 0.15059643,0.15059643 0 0 1 -0.1506,-0.150598 0.15059643,0.15059643 0 0 1 0.1506,-0.150596 0.15059643,0.15059643 0 0 1 0.1506,0.150596 z" />
    <path
       id="circle353"
       style="fill:#f9f9f9;stroke-width:0.0788686;stroke-linecap:round"
       d="m 129.22686,90.670455 a 0.19815321,0.19815321 0 0 1 -0.19815,0.198154 0.19815321,0.19815321 0 0 1 -0.19815,-0.198154 0.19815321,0.19815321 0 0 1 0.19815,-0.198152 0.19815321,0.19815321 0 0 1 0.19815,0.198152 z" />
    <path
       id="circle354"
       style="fill:#f9f9f9;stroke-width:0.0788686;stroke-linecap:round"
       d="m 130.67288,88.63148 a 0.19815321,0.19815321 0 0 1 -0.19815,0.198155 0.19815321,0.19815321 0 0 1 -0.19815,-0.198155 0.19815321,0.19815321 0 0 1 0.19815,-0.198151 0.19815321,0.19815321 0 0 1 0.19815,0.198151 z" />
    <path
       id="circle355"
       style="fill:#f9f9f9;stroke-width:0.0441664;stroke-linecap:round"
       d="m 134.77863,88.496733 a 0.11096579,0.11096579 0 0 1 -0.11097,0.110967 0.11096579,0.11096579 0 0 1 -0.11097,-0.110967 0.11096579,0.11096579 0 0 1 0.11097,-0.110963 0.11096579,0.11096579 0 0 1 0.11097,0.110963 z" />
    <path
       id="circle356"
       style="fill:#f9f9f9;stroke-width:0.0441664;stroke-linecap:round"
       d="m 129.02574,89.379206 a 0.11096579,0.11096579 0 0 1 -0.11097,0.110966 0.11096579,0.11096579 0 0 1 -0.11096,-0.110966 0.11096579,0.11096579 0 0 1 0.11096,-0.110966 0.11096579,0.11096579 0 0 1 0.11097,0.110966 z" />
    <path
       id="circle357"
       style="fill:#f9f9f9;stroke-width:0.0347022;stroke-linecap:round"
       d="m 134.19209,89.630177 a 0.08718739,0.08718739 0 0 1 -0.0872,0.08719 0.08718739,0.08718739 0 0 1 -0.0872,-0.08719 0.08718739,0.08718739 0 0 1 0.0872,-0.08719 0.08718739,0.08718739 0 0 1 0.0872,0.08719 z" />
    <path
       id="circle358"
       style="fill:#f9f9f9;stroke-width:0.075714;stroke-linecap:round"
       d="m 142.11972,84.639381 a 0.19022708,0.19022708 0 0 1 -0.19023,0.190225 0.19022708,0.19022708 0 0 1 -0.19023,-0.190225 0.19022708,0.19022708 0 0 1 0.19023,-0.190228 0.19022708,0.19022708 0 0 1 0.19023,0.190228 z" />
    <path
       id="circle359"
       style="fill:#f9f9f9;stroke-width:0.088333;stroke-linecap:round"
       d="m 139.85817,86.004946 a 0.22193159,0.22193159 0 0 1 -0.22193,0.221932 0.22193159,0.22193159 0 0 1 -0.22194,-0.221932 0.22193159,0.22193159 0 0 1 0.22194,-0.221933 0.22193159,0.22193159 0 0 1 0.22193,0.221933 z" />
    <path
       id="circle360"
       style="fill:#f9f9f9;stroke-width:0.189285;stroke-linecap:round"
       d="m 180.94723,86.797566 a 0.47556771,0.47556771 0 0 1 -0.47557,0.475567 0.47556771,0.47556771 0 0 1 -0.47556,-0.475567 0.47556771,0.47556771 0 0 1 0.47556,-0.475567 0.47556771,0.47556771 0 0 1 0.47557,0.475567 z" />
    <path
       id="circle361"
       style="fill:#f9f9f9;stroke-width:0.164047;stroke-linecap:round"
       d="m 165.07172,80.756412 a 0.41215868,0.41215868 0 0 1 -0.41216,0.41216 0.41215868,0.41215868 0 0 1 -0.41215,-0.41216 0.41215868,0.41215868 0 0 1 0.41215,-0.412158 0.41215868,0.41215868 0 0 1 0.41216,0.412158 z" />
    <path
       id="circle362"
       style="fill:#f9f9f9;stroke-width:0.0788686;stroke-linecap:round"
       d="m 158.74905,80.94017 a 0.19815321,0.19815321 0 0 1 -0.19816,0.198154 0.19815321,0.19815321 0 0 1 -0.19815,-0.198154 0.19815321,0.19815321 0 0 1 0.19815,-0.198152 0.19815321,0.19815321 0 0 1 0.19816,0.198152 z" />
    <path
       id="circle363"
       style="fill:#f9f9f9;stroke-width:0.164047;stroke-linecap:round"
       d="m 160.41322,79.05939 a 0.41215868,0.41215868 0 0 1 -0.41216,0.41216 0.41215868,0.41215868 0 0 1 -0.41216,-0.41216 0.41215868,0.41215868 0 0 1 0.41216,-0.412157 0.41215868,0.41215868 0 0 1 0.41216,0.412157 z" />
    <path
       id="circle364"
       style="fill:#f9f9f9;stroke-width:0.0441664;stroke-linecap:round"
       d="m 162.25208,84.940572 a 0.11096579,0.11096579 0 0 1 -0.11097,0.110966 0.11096579,0.11096579 0 0 1 -0.11096,-0.110966 0.11096579,0.11096579 0 0 1 0.11096,-0.110966 0.11096579,0.11096579 0 0 1 0.11097,0.110966 z" />
    <path
       id="circle365"
       style="fill:#f9f9f9;stroke-width:0.0658551;stroke-linecap:round"
       d="m 161.1609,83.613311 a 0.16545704,0.16545704 0 0 1 -0.16545,0.165457 0.16545704,0.16545704 0 0 1 -0.16546,-0.165457 0.16545704,0.16545704 0 0 1 0.16546,-0.165457 0.16545704,0.16545704 0 0 1 0.16545,0.165457 z" />
    <path
       id="circle366"
       style="fill:#f9f9f9;stroke-width:0.075714;stroke-linecap:round"
       d="m 162.98371,83.565173 a 0.19022708,0.19022708 0 0 1 -0.19023,0.190227 0.19022708,0.19022708 0 0 1 -0.19023,-0.190227 0.19022708,0.19022708 0 0 1 0.19023,-0.190228 0.19022708,0.19022708 0 0 1 0.19023,0.190228 z" />
    <path
       id="circle367"
       style="fill:#f9f9f9;stroke-width:0.088333;stroke-linecap:round"
       d="m 167.10271,86.377937 a 0.22193159,0.22193159 0 0 1 -0.22193,0.22193 0.22193159,0.22193159 0 0 1 -0.22193,-0.22193 0.22193159,0.22193159 0 0 1 0.22193,-0.221933 0.22193159,0.22193159 0 0 1 0.22193,0.221933 z" />
    <path
       id="circle368"
       style="fill:#f9f9f9;stroke-width:0.113571;stroke-linecap:round"
       d="m 144.62437,84.417462 a 0.28534061,0.28534061 0 0 1 -0.28534,0.28534 0.28534061,0.28534061 0 0 1 -0.28534,-0.28534 0.28534061,0.28534061 0 0 1 0.28534,-0.28534 0.28534061,0.28534061 0 0 1 0.28534,0.28534 z" />
    <path
       id="circle369"
       style="fill:#f9f9f9;stroke-width:0.0788686;stroke-linecap:round"
       d="m 124.83657,87.880461 a 0.19815321,0.19815321 0 0 1 -0.19815,0.198154 0.19815321,0.19815321 0 0 1 -0.19815,-0.198154 0.19815321,0.19815321 0 0 1 0.19815,-0.198152 0.19815321,0.19815321 0 0 1 0.19815,0.198152 z" />
    <path
       id="circle370"
       style="fill:#f9f9f9;stroke-width:0.164047;stroke-linecap:round"
       d="m 124.06477,89.331647 a 0.41215868,0.41215868 0 0 1 -0.41216,0.41216 0.41215868,0.41215868 0 0 1 -0.41216,-0.41216 0.41215868,0.41215868 0 0 1 0.41216,-0.412157 0.41215868,0.41215868 0 0 1 0.41216,0.412157 z" />
    <path
       id="circle371"
       style="fill:#f9f9f9;stroke-width:0.0441664;stroke-linecap:round"
       d="m 138.14698,86.791526 a 0.11096579,0.11096579 0 0 1 -0.11097,0.110966 0.11096579,0.11096579 0 0 1 -0.11097,-0.110966 0.11096579,0.11096579 0 0 1 0.11097,-0.110967 0.11096579,0.11096579 0 0 1 0.11097,0.110967 z" />
    <path
       id="circle372"
       style="fill:#f9f9f9;stroke-width:0.0441664;stroke-linecap:round"
       d="m 124.63545,86.589212 a 0.11096579,0.11096579 0 0 1 -0.11097,0.110966 0.11096579,0.11096579 0 0 1 -0.11097,-0.110966 0.11096579,0.11096579 0 0 1 0.11097,-0.110966 0.11096579,0.11096579 0 0 1 0.11097,0.110966 z" />
    <path
       id="circle373"
       style="fill:#f9f9f9;stroke-width:0.0763384;stroke-linecap:round"
       d="m 136.36744,88.695689 a 0.19179627,0.19179627 0 0 1 -0.1918,0.191797 0.19179627,0.19179627 0 0 1 -0.19179,-0.191797 0.19179627,0.19179627 0 0 1 0.19179,-0.191796 0.19179627,0.19179627 0 0 1 0.1918,0.191796 z" />
    <path
       id="circle374"
       style="fill:#f9f9f9;stroke-width:0.0473213;stroke-linecap:round"
       d="m 135.32526,87.005531 a 0.11889192,0.11889192 0 0 1 -0.11889,0.118891 0.11889192,0.11889192 0 0 1 -0.11889,-0.118891 0.11889192,0.11889192 0 0 1 0.11889,-0.118893 0.11889192,0.11889192 0 0 1 0.11889,0.118893 z" />
    <path
       id="circle375"
       style="fill:#f9f9f9;stroke-width:0.0788686;stroke-linecap:round"
       d="m 124.98073,90.696908 a 0.19815321,0.19815321 0 0 1 -0.19815,0.198152 0.19815321,0.19815321 0 0 1 -0.19815,-0.198152 0.19815321,0.19815321 0 0 1 0.19815,-0.198155 0.19815321,0.19815321 0 0 1 0.19815,0.198155 z" />
    <path
       id="circle376"
       style="fill:#f9f9f9;stroke-width:0.0788686;stroke-linecap:round"
       d="m 139.12408,88.938794 a 0.19815321,0.19815321 0 0 1 -0.19815,0.198154 0.19815321,0.19815321 0 0 1 -0.19816,-0.198154 0.19815321,0.19815321 0 0 1 0.19816,-0.198152 0.19815321,0.19815321 0 0 1 0.19815,0.198152 z" />
    <path
       id="circle377"
       style="fill:#f9f9f9;stroke-width:0.0536308;stroke-linecap:round"
       d="m 137.49625,88.194444 a 0.13474418,0.13474418 0 0 1 -0.13474,0.134745 0.13474418,0.13474418 0 0 1 -0.13475,-0.134745 0.13474418,0.13474418 0 0 1 0.13475,-0.134744 0.13474418,0.13474418 0 0 1 0.13474,0.134744 z" />
    <path
       id="circle378"
       style="fill:#f9f9f9;stroke-width:0.0441664;stroke-linecap:round"
       d="m 134.00876,87.330495 a 0.11096579,0.11096579 0 0 1 -0.11096,0.110966 0.11096579,0.11096579 0 0 1 -0.11097,-0.110966 0.11096579,0.11096579 0 0 1 0.11097,-0.110966 0.11096579,0.11096579 0 0 1 0.11096,0.110966 z" />
    <path
       id="circle379"
       style="fill:#f9f9f9;stroke-width:0.0441664;stroke-linecap:round"
       d="m 138.92295,87.647545 a 0.11096579,0.11096579 0 0 1 -0.11097,0.110967 0.11096579,0.11096579 0 0 1 -0.11097,-0.110967 0.11096579,0.11096579 0 0 1 0.11097,-0.110966 0.11096579,0.11096579 0 0 1 0.11097,0.110966 z" />
    <path
       id="circle380"
       style="fill:#f9f9f9;stroke-width:0.113571;stroke-linecap:round"
       d="m 135.34035,90.041247 a 0.28534061,0.28534061 0 0 1 -0.28534,0.285339 0.28534061,0.28534061 0 0 1 -0.28534,-0.285339 0.28534061,0.28534061 0 0 1 0.28534,-0.28534 0.28534061,0.28534061 0 0 1 0.28534,0.28534 z" />
    <path
       id="circle381"
       style="fill:#f9f9f9;stroke-width:0.075714;stroke-linecap:round"
       d="m 132.88323,88.123115 a 0.19022708,0.19022708 0 0 1 -0.19022,0.190225 0.19022708,0.19022708 0 0 1 -0.19023,-0.190225 0.19022708,0.19022708 0 0 1 0.19023,-0.190227 0.19022708,0.19022708 0 0 1 0.19022,0.190227 z" />
    <path
       id="circle382"
       style="fill:#f9f9f9;stroke-width:0.088333;stroke-linecap:round"
       d="m 124.64,87.653586 a 0.22193159,0.22193159 0 0 1 -0.22193,0.22193 0.22193159,0.22193159 0 0 1 -0.22193,-0.22193 0.22193159,0.22193159 0 0 1 0.22193,-0.221933 0.22193159,0.22193159 0 0 1 0.22193,0.221933 z" />
    <path
       id="circle383"
       style="fill:#f9f9f9;stroke-width:0.0536305;stroke-linecap:round"
       d="m 138.79267,85.176557 a 0.13474417,0.13474417 0 0 1 -0.13475,0.134744 0.13474417,0.13474417 0 0 1 -0.13474,-0.134744 0.13474417,0.13474417 0 0 1 0.13474,-0.134745 0.13474417,0.13474417 0 0 1 0.13475,0.134745 z" />
    <path
       id="circle384"
       style="fill:#f9f9f9;stroke-width:0.0756198;stroke-linecap:round"
       d="m 142.81429,82.806546 a 0.18999089,0.18999089 0 0 1 -0.18999,0.189992 0.18999089,0.18999089 0 0 1 -0.18999,-0.189992 0.18999089,0.18999089 0 0 1 0.18999,-0.189992 0.18999089,0.18999089 0 0 1 0.18999,0.189992 z" />
    <path
       id="circle385"
       style="fill:#f9f9f9;stroke-width:0.0441664;stroke-linecap:round"
       d="m 126.29916,88.523186 a 0.11096579,0.11096579 0 0 1 -0.11096,0.110967 0.11096579,0.11096579 0 0 1 -0.11097,-0.110967 0.11096579,0.11096579 0 0 1 0.11097,-0.110966 0.11096579,0.11096579 0 0 1 0.11096,0.110966 z" />
    <path
       id="circle386"
       style="fill:#f9f9f9;stroke-width:0.0441664;stroke-linecap:round"
       d="m 123.19211,85.701477 a 0.11096579,0.11096579 0 0 1 -0.11097,0.110963 0.11096579,0.11096579 0 0 1 -0.11096,-0.110963 0.11096579,0.11096579 0 0 1 0.11096,-0.110967 0.11096579,0.11096579 0 0 1 0.11097,0.110967 z" />
    <path
       id="circle387"
       style="fill:#f9f9f9;stroke-width:0.113571;stroke-linecap:round"
       d="m 129.32545,88.227258 a 0.28534061,0.28534061 0 0 1 -0.28534,0.28534 0.28534061,0.28534061 0 0 1 -0.28534,-0.28534 0.28534061,0.28534061 0 0 1 0.28534,-0.28534 0.28534061,0.28534061 0 0 1 0.28534,0.28534 z" />
    <path
       id="circle388"
       style="fill:#f9f9f9;stroke-width:0.0441664;stroke-linecap:round"
       d="m 178.08939,85.715396 a 0.11096579,0.11096579 0 0 1 -0.11097,0.110967 0.11096579,0.11096579 0 0 1 -0.11097,-0.110967 0.11096579,0.11096579 0 0 1 0.11097,-0.110966 0.11096579,0.11096579 0 0 1 0.11097,0.110966 z" />
    <path
       id="circle389"
       style="fill:#f9f9f9;stroke-width:0.0441664;stroke-linecap:round"
       d="m 173.21423,84.447143 a 0.11096579,0.11096579 0 0 1 -0.11096,0.110966 0.11096579,0.11096579 0 0 1 -0.11097,-0.110966 0.11096579,0.11096579 0 0 1 0.11097,-0.110967 0.11096579,0.11096579 0 0 1 0.11096,0.110967 z" />
    <path
       id="circle390"
       style="fill:#f9f9f9;stroke-width:0.05994;stroke-linecap:round"
       d="m 172.05659,87.278785 a 0.15059643,0.15059643 0 0 1 -0.1506,0.150598 0.15059643,0.15059643 0 0 1 -0.1506,-0.150598 0.15059643,0.15059643 0 0 1 0.1506,-0.150596 0.15059643,0.15059643 0 0 1 0.1506,0.150596 z" />
    <path
       id="circle391"
       style="fill:#f9f9f9;stroke-width:0.0347022;stroke-linecap:round"
       d="m 167.95977,85.908714 a 0.08718739,0.08718739 0 0 1 -0.0872,0.08719 0.08718739,0.08718739 0 0 1 -0.0872,-0.08719 0.08718739,0.08718739 0 0 1 0.0872,-0.08719 0.08718739,0.08718739 0 0 1 0.0872,0.08719 z" />
    <path
       id="circle392"
       style="fill:#f9f9f9;stroke-width:0.0441664;stroke-linecap:round"
       d="m 169.89698,86.791526 a 0.11096579,0.11096579 0 0 1 -0.11097,0.110966 0.11096579,0.11096579 0 0 1 -0.11097,-0.110966 0.11096579,0.11096579 0 0 1 0.11097,-0.110967 0.11096579,0.11096579 0 0 1 0.11097,0.110967 z" />
    <path
       id="circle393"
       style="fill:#f9f9f9;stroke-width:0.0536308;stroke-linecap:round"
       d="m 174.76121,87.252866 a 0.13474418,0.13474418 0 0 1 -0.13475,0.134745 0.13474418,0.13474418 0 0 1 -0.13474,-0.134745 0.13474418,0.13474418 0 0 1 0.13474,-0.134744 0.13474418,0.13474418 0 0 1 0.13475,0.134744 z" />
    <path
       id="path393"
       style="fill:#48373e;stroke-width:0.744897"
       d="m 151.52953,115.67291 c -29.40634,1.05603 -37.34983,-31.111499 -37.26018,-30.975657 0.64874,3.085484 1.53357,8.022881 2.29578,9.824942 6.35291,15.020075 20.8136,22.616715 34.12091,22.616715 16.8473,0 29.29497,-11.20682 34.12092,-22.616715 0.93693,-2.215152 -11.29845,20.361405 -33.27743,21.150715 z"
       sodipodi:nodetypes="zcsssz" />
    <path
       id="circle394"
       style="fill:#f9f9f9;stroke-width:0.264999;stroke-linecap:round"
       d="m 131.06659,92.51532 a 0.66579479,0.66579479 0 0 1 -0.6658,0.665795 0.66579479,0.66579479 0 0 1 -0.66579,-0.665795 0.66579479,0.66579479 0 0 1 0.66579,-0.665795 0.66579479,0.66579479 0 0 1 0.6658,0.665795 z" />
    <path
       id="circle395"
       style="fill:#f9f9f9;stroke-width:0.075714;stroke-linecap:round"
       d="m 152.86549,80.165896 a 0.19022708,0.19022708 0 0 1 -0.19022,0.190227 0.19022708,0.19022708 0 0 1 -0.19023,-0.190227 0.19022708,0.19022708 0 0 1 0.19023,-0.190227 0.19022708,0.19022708 0 0 1 0.19022,0.190227 z" />
    <path
       id="circle396"
       style="fill:#f9f9f9;stroke-width:0.0788686;stroke-linecap:round"
       d="m 141.78648,89.871797 a 0.19815321,0.19815321 0 0 1 -0.19815,0.198152 0.19815321,0.19815321 0 0 1 -0.19815,-0.198152 0.19815321,0.19815321 0 0 1 0.19815,-0.198155 0.19815321,0.19815321 0 0 1 0.19815,0.198155 z" />
    <path
       id="circle397"
       style="fill:#f9f9f9;stroke-width:0.0946423;stroke-linecap:round"
       d="m 142.24965,88.950422 a 0.23778385,0.23778385 0 0 1 -0.23778,0.237784 0.23778385,0.23778385 0 0 1 -0.23779,-0.237784 0.23778385,0.23778385 0 0 1 0.23779,-0.237783 0.23778385,0.23778385 0 0 1 0.23778,0.237783 z" />
    <path
       id="circle398"
       style="fill:#f9f9f9;stroke-width:0.0441664;stroke-linecap:round"
       d="m 135.97695,93.379656 a 0.11096579,0.11096579 0 0 1 -0.11096,0.110966 0.11096579,0.11096579 0 0 1 -0.11097,-0.110966 0.11096579,0.11096579 0 0 1 0.11097,-0.110964 0.11096579,0.11096579 0 0 1 0.11096,0.110964 z" />
    <path
       id="circle399"
       style="fill:#f9f9f9;stroke-width:0.0441664;stroke-linecap:round"
       d="m 147.99773,83.784637 a 0.11096579,0.11096579 0 0 1 -0.11096,0.110963 0.11096579,0.11096579 0 0 1 -0.11097,-0.110963 0.11096579,0.11096579 0 0 1 0.11097,-0.110967 0.11096579,0.11096579 0 0 1 0.11096,0.110967 z" />
    <path
       id="circle400"
       style="fill:#f9f9f9;stroke-width:0.113571;stroke-linecap:round"
       d="m 140.72465,89.487759 a 0.28534061,0.28534061 0 0 1 -0.28534,0.28534 0.28534061,0.28534061 0 0 1 -0.28535,-0.28534 0.28534061,0.28534061 0 0 1 0.28535,-0.28534 0.28534061,0.28534061 0 0 1 0.28534,0.28534 z" />
    <path
       id="circle401"
       style="fill:#f9f9f9;stroke-width:0.075714;stroke-linecap:round"
       d="m 138.5124,90.870816 a 0.19022708,0.19022708 0 0 1 -0.19023,0.190225 0.19022708,0.19022708 0 0 1 -0.19023,-0.190225 0.19022708,0.19022708 0 0 1 0.19023,-0.190228 0.19022708,0.19022708 0 0 1 0.19023,0.190228 z" />
    <path
       id="circle402"
       style="fill:#f9f9f9;stroke-width:0.0788686;stroke-linecap:round"
       d="m 143.51436,90.141272 a 0.19815321,0.19815321 0 0 1 -0.19815,0.198155 0.19815321,0.19815321 0 0 1 -0.19815,-0.198155 0.19815321,0.19815321 0 0 1 0.19815,-0.198151 0.19815321,0.19815321 0 0 1 0.19815,0.198151 z" />
    <path
       id="circle403"
       style="fill:#f9f9f9;stroke-width:0.123035;stroke-linecap:round"
       d="m 148.47977,85.044717 a 0.30911903,0.30911903 0 0 1 -0.30912,0.309118 0.30911903,0.30911903 0 0 1 -0.30912,-0.309118 0.30911903,0.30911903 0 0 1 0.30912,-0.30912 0.30911903,0.30911903 0 0 1 0.30912,0.30912 z" />
    <path
       id="circle404"
       style="fill:#f9f9f9;stroke-width:0.0441664;stroke-linecap:round"
       d="m 151.72801,77.366811 a 0.11096579,0.11096579 0 0 1 -0.11096,0.110966 0.11096579,0.11096579 0 0 1 -0.11097,-0.110966 0.11096579,0.11096579 0 0 1 0.11097,-0.110967 0.11096579,0.11096579 0 0 1 0.11096,0.110967 z" />
    <path
       id="circle405"
       style="fill:#f9f9f9;stroke-width:0.0441664;stroke-linecap:round"
       d="m 143.31325,88.850039 a 0.11096579,0.11096579 0 0 1 -0.11097,0.110967 0.11096579,0.11096579 0 0 1 -0.11096,-0.110967 0.11096579,0.11096579 0 0 1 0.11096,-0.110966 0.11096579,0.11096579 0 0 1 0.11097,0.110966 z" />
    <path
       id="circle406"
       style="fill:#f9f9f9;stroke-width:0.0441664;stroke-linecap:round"
       d="m 161.9628,81.660443 a 0.11096579,0.11096579 0 0 1 -0.11096,0.110966 0.11096579,0.11096579 0 0 1 -0.11097,-0.110966 0.11096579,0.11096579 0 0 1 0.11097,-0.110964 0.11096579,0.11096579 0 0 1 0.11096,0.110964 z" />
    <path
       id="circle407"
       style="fill:#f9f9f9;stroke-width:0.0788686;stroke-linecap:round"
       d="m 137.35093,92.616542 a 0.19815321,0.19815321 0 0 1 -0.19815,0.198152 0.19815321,0.19815321 0 0 1 -0.19815,-0.198152 0.19815321,0.19815321 0 0 1 0.19815,-0.198154 0.19815321,0.19815321 0 0 1 0.19815,0.198154 z" />
    <path
       id="circle408"
       style="fill:#f9f9f9;stroke-width:0.0512567;stroke-linecap:round"
       d="m 144.34103,87.466419 a 0.12877957,0.12877957 0 0 1 -0.12878,0.128781 0.12877957,0.12877957 0 0 1 -0.12878,-0.128781 0.12877957,0.12877957 0 0 1 0.12878,-0.128778 0.12877957,0.12877957 0 0 1 0.12878,0.128778 z" />
    <path
       id="circle409"
       style="fill:#f9f9f9;stroke-width:0.0441664;stroke-linecap:round"
       d="m 137.14982,91.325261 a 0.11096579,0.11096579 0 0 1 -0.11097,0.110964 0.11096579,0.11096579 0 0 1 -0.11096,-0.110964 0.11096579,0.11096579 0 0 1 0.11096,-0.110966 0.11096579,0.11096579 0 0 1 0.11097,0.110966 z" />
    <path
       id="circle410"
       style="fill:#f9f9f9;stroke-width:0.075714;stroke-linecap:round"
       d="m 133.88219,93.781232 a 0.19022708,0.19022708 0 0 1 -0.19023,0.190225 0.19022708,0.19022708 0 0 1 -0.19022,-0.190225 0.19022708,0.19022708 0 0 1 0.19022,-0.190227 0.19022708,0.19022708 0 0 1 0.19023,0.190227 z" />
    <path
       id="circle411"
       style="fill:#f9f9f9;stroke-width:0.088333;stroke-linecap:round"
       d="m 150.24783,80.650218 a 0.22193159,0.22193159 0 0 1 -0.22193,0.22193 0.22193159,0.22193159 0 0 1 -0.22193,-0.22193 0.22193159,0.22193159 0 0 1 0.22193,-0.221932 0.22193159,0.22193159 0 0 1 0.22193,0.221932 z" />
    <path
       id="circle412"
       style="fill:#f9f9f9;stroke-width:0.05994;stroke-linecap:round"
       d="m 157.83523,80.796493 a 0.15059643,0.15059643 0 0 1 -0.1506,0.150598 0.15059643,0.15059643 0 0 1 -0.15059,-0.150598 0.15059643,0.15059643 0 0 1 0.15059,-0.150595 0.15059643,0.15059643 0 0 1 0.1506,0.150595 z" />
    <path
       id="circle413"
       style="fill:#f9f9f9;stroke-width:0.0788686;stroke-linecap:round"
       d="m 140.14093,91.728772 a 0.19815321,0.19815321 0 0 1 -0.19815,0.198155 0.19815321,0.19815321 0 0 1 -0.19816,-0.198155 0.19815321,0.19815321 0 0 1 0.19816,-0.198152 0.19815321,0.19815321 0 0 1 0.19815,0.198152 z" />
    <path
       id="circle414"
       style="fill:#f9f9f9;stroke-width:0.0788686;stroke-linecap:round"
       d="m 148.20153,82.149189 a 0.19815321,0.19815321 0 0 1 -0.19815,0.198154 0.19815321,0.19815321 0 0 1 -0.19816,-0.198154 0.19815321,0.19815321 0 0 1 0.19816,-0.198152 0.19815321,0.19815321 0 0 1 0.19815,0.198152 z" />
    <path
       id="circle415"
       style="fill:#f9f9f9;stroke-width:0.0441664;stroke-linecap:round"
       d="m 149.22938,83.898389 a 0.11096579,0.11096579 0 0 1 -0.11097,0.110966 0.11096579,0.11096579 0 0 1 -0.11097,-0.110966 0.11096579,0.11096579 0 0 1 0.11097,-0.110966 0.11096579,0.11096579 0 0 1 0.11097,0.110966 z" />
    <path
       id="circle416"
       style="fill:#f9f9f9;stroke-width:0.0441664;stroke-linecap:round"
       d="m 139.93981,90.437539 a 0.11096579,0.11096579 0 0 1 -0.11097,0.110967 0.11096579,0.11096579 0 0 1 -0.11096,-0.110967 0.11096579,0.11096579 0 0 1 0.11096,-0.110966 0.11096579,0.11096579 0 0 1 0.11097,0.110966 z" />
    <path
       id="circle417"
       style="fill:#f9f9f9;stroke-width:0.0347022;stroke-linecap:round"
       d="m 144.24626,89.10101 a 0.08718739,0.08718739 0 0 1 -0.0872,0.08719 0.08718739,0.08718739 0 0 1 -0.0872,-0.08719 0.08718739,0.08718739 0 0 1 0.0872,-0.08719 0.08718739,0.08718739 0 0 1 0.0872,0.08719 z" />
    <path
       id="circle418"
       style="fill:#f9f9f9;stroke-width:0.0788686;stroke-linecap:round"
       d="m 145.59688,87.476013 a 0.19815321,0.19815321 0 0 1 -0.19816,0.198152 0.19815321,0.19815321 0 0 1 -0.19815,-0.198152 0.19815321,0.19815321 0 0 1 0.19815,-0.198154 0.19815321,0.19815321 0 0 1 0.19816,0.198154 z" />
    <path
       id="circle419"
       style="fill:#f9f9f9;stroke-width:0.164047;stroke-linecap:round"
       d="m 147.51448,86.261179 a 0.41215868,0.41215868 0 0 1 -0.41216,0.41216 0.41215868,0.41215868 0 0 1 -0.41216,-0.41216 0.41215868,0.41215868 0 0 1 0.41216,-0.412157 0.41215868,0.41215868 0 0 1 0.41216,0.412157 z" />
    <path
       id="circle420"
       style="fill:#f9f9f9;stroke-width:0.113571;stroke-linecap:round"
       d="m 149.50444,79.226159 a 0.28534061,0.28534061 0 0 1 -0.28534,0.285343 0.28534061,0.28534061 0 0 1 -0.28534,-0.285343 0.28534061,0.28534061 0 0 1 0.28534,-0.285339 0.28534061,0.28534061 0 0 1 0.28534,0.285339 z" />
    <path
       id="circle421"
       style="fill:#f9f9f9;stroke-width:0.0788686;stroke-linecap:round"
       d="m 135.49793,94.665652 a 0.19815321,0.19815321 0 0 1 -0.19815,0.198147 0.19815321,0.19815321 0 0 1 -0.19816,-0.198147 0.19815321,0.19815321 0 0 1 0.19816,-0.198146 0.19815321,0.19815321 0 0 1 0.19815,0.198146 z" />
    <path
       id="circle422"
       style="fill:#f9f9f9;stroke-width:0.0788686;stroke-linecap:round"
       d="m 151.76997,79.118495 a 0.19815321,0.19815321 0 0 1 -0.19816,0.198155 0.19815321,0.19815321 0 0 1 -0.19815,-0.198155 0.19815321,0.19815321 0 0 1 0.19815,-0.198151 0.19815321,0.19815321 0 0 1 0.19816,0.198151 z" />
    <path
       id="circle423"
       style="fill:#f9f9f9;stroke-width:0.0536308;stroke-linecap:round"
       d="m 149.93167,78.140278 a 0.13474418,0.13474418 0 0 1 -0.13475,0.134744 0.13474418,0.13474418 0 0 1 -0.13474,-0.134744 0.13474418,0.13474418 0 0 1 0.13474,-0.134745 0.13474418,0.13474418 0 0 1 0.13475,0.134745 z" />
    <path
       id="circle424"
       style="fill:#f9f9f9;stroke-width:0.0441664;stroke-linecap:round"
       d="m 150.7189,79.257941 a 0.11096579,0.11096579 0 0 1 -0.11097,0.110966 0.11096579,0.11096579 0 0 1 -0.11096,-0.110966 0.11096579,0.11096579 0 0 1 0.11096,-0.110966 0.11096579,0.11096579 0 0 1 0.11097,0.110966 z" />
    <path
       id="circle425"
       style="fill:#f9f9f9;stroke-width:0.0441664;stroke-linecap:round"
       d="m 156.45159,81.165254 a 0.11096579,0.11096579 0 0 1 -0.11096,0.110966 0.11096579,0.11096579 0 0 1 -0.11097,-0.110966 0.11096579,0.11096579 0 0 1 0.11097,-0.110967 0.11096579,0.11096579 0 0 1 0.11096,0.110967 z" />
    <path
       id="circle426"
       style="fill:#f9f9f9;stroke-width:0.113571;stroke-linecap:round"
       d="m 147.05493,82.987365 a 0.28534061,0.28534061 0 0 1 -0.28534,0.28534 0.28534061,0.28534061 0 0 1 -0.28534,-0.28534 0.28534061,0.28534061 0 0 1 0.28534,-0.28534 0.28534061,0.28534061 0 0 1 0.28534,0.28534 z" />
    <path
       id="circle427"
       style="fill:#f9f9f9;stroke-width:0.075714;stroke-linecap:round"
       d="m 142.9374,87.593949 a 0.19022708,0.19022708 0 0 1 -0.19023,0.190224 0.19022708,0.19022708 0 0 1 -0.19022,-0.190224 0.19022708,0.19022708 0 0 1 0.19022,-0.190228 0.19022708,0.19022708 0 0 1 0.19023,0.190228 z" />
    <path
       id="circle428"
       style="fill:#f9f9f9;stroke-width:0.088333;stroke-linecap:round"
       d="m 135.1572,91.622336 a 0.22193159,0.22193159 0 0 1 -0.22194,0.22193 0.22193159,0.22193159 0 0 1 -0.22193,-0.22193 0.22193159,0.22193159 0 0 1 0.22193,-0.221933 0.22193159,0.22193159 0 0 1 0.22194,0.221933 z" />
    <path
       id="circle429"
       style="fill:#f9f9f9;stroke-width:0.0441664;stroke-linecap:round"
       d="m 137.21323,89.58152 a 0.11096579,0.11096579 0 0 1 -0.11096,0.110966 0.11096579,0.11096579 0 0 1 -0.11097,-0.110966 0.11096579,0.11096579 0 0 1 0.11097,-0.110966 0.11096579,0.11096579 0 0 1 0.11096,0.110966 z" />
    <path
       id="circle430"
       style="fill:#f9f9f9;stroke-width:0.113571;stroke-linecap:round"
       d="m 141.68946,87.78888 a 0.28534061,0.28534061 0 0 1 -0.28534,0.28534 0.28534061,0.28534061 0 0 1 -0.28534,-0.28534 0.28534061,0.28534061 0 0 1 0.28534,-0.28534 0.28534061,0.28534061 0 0 1 0.28534,0.28534 z" />
    <path
       id="circle431"
       style="fill:#f9f9f9;stroke-width:0.0441664;stroke-linecap:round"
       d="m 154.65806,78.861164 a 0.11096579,0.11096579 0 0 1 -0.11096,0.110966 0.11096579,0.11096579 0 0 1 -0.11097,-0.110966 0.11096579,0.11096579 0 0 1 0.11097,-0.110966 0.11096579,0.11096579 0 0 1 0.11096,0.110966 z" />
    <path
       id="circle432"
       style="fill:#f9f9f9;stroke-width:0.0441664;stroke-linecap:round"
       d="m 159.66739,79.717184 a 0.11096579,0.11096579 0 0 1 -0.11097,0.110966 0.11096579,0.11096579 0 0 1 -0.11097,-0.110966 0.11096579,0.11096579 0 0 1 0.11097,-0.110966 0.11096579,0.11096579 0 0 1 0.11097,0.110966 z" />
    <path
       id="circle433"
       style="fill:#f9f9f9;stroke-width:0.113571;stroke-linecap:round"
       d="m 156.22594,77.645814 a 0.28534061,0.28534061 0 0 1 -0.28534,0.285342 0.28534061,0.28534061 0 0 1 -0.28534,-0.285342 0.28534061,0.28534061 0 0 1 0.28534,-0.28534 0.28534061,0.28534061 0 0 1 0.28534,0.28534 z" />
    <path
       id="circle434"
       style="fill:#f9f9f9;stroke-width:0.075714;stroke-linecap:round"
       d="m 156.79663,79.262738 a 0.19022708,0.19022708 0 0 1 -0.19022,0.190228 0.19022708,0.19022708 0 0 1 -0.19023,-0.190228 0.19022708,0.19022708 0 0 1 0.19023,-0.190227 0.19022708,0.19022708 0 0 1 0.19022,0.190227 z" />
    <path
       id="circle435"
       style="fill:#f9f9f9;stroke-width:0.0788686;stroke-linecap:round"
       d="m 152.75797,73.016204 a 0.19815321,0.19815321 0 0 1 -0.19815,0.198154 0.19815321,0.19815321 0 0 1 -0.19816,-0.198154 0.19815321,0.19815321 0 0 1 0.19816,-0.198152 0.19815321,0.19815321 0 0 1 0.19815,0.198152 z" />
    <path
       id="circle436"
       style="fill:#f9f9f9;stroke-width:0.0977971;stroke-linecap:round"
       d="m 150.99564,73.00766 a 0.24570998,0.24570998 0 0 1 -0.24571,0.245711 0.24570998,0.24570998 0 0 1 -0.24571,-0.245711 0.24570998,0.24570998 0 0 1 0.24571,-0.245708 0.24570998,0.24570998 0 0 1 0.24571,0.245708 z" />
    <path
       id="circle437"
       style="fill:#f9f9f9;stroke-width:0.0441664;stroke-linecap:round"
       d="m 155.43405,79.717184 a 0.11096579,0.11096579 0 0 1 -0.11096,0.110966 0.11096579,0.11096579 0 0 1 -0.11097,-0.110966 0.11096579,0.11096579 0 0 1 0.11097,-0.110966 0.11096579,0.11096579 0 0 1 0.11096,0.110966 z" />
    <path
       id="circle438"
       style="fill:#f9f9f9;stroke-width:0.075714;stroke-linecap:round"
       d="m 149.6861,71.270493 a 0.19022708,0.19022708 0 0 1 -0.19023,0.190228 0.19022708,0.19022708 0 0 1 -0.19022,-0.190228 0.19022708,0.19022708 0 0 1 0.19022,-0.190227 0.19022708,0.19022708 0 0 1 0.19023,0.190227 z" />
    <path
       id="circle439"
       style="fill:#f9f9f9;stroke-width:0.088333;stroke-linecap:round"
       d="m 155.79142,75.6102 a 0.22193159,0.22193159 0 0 1 -0.22194,0.22193 0.22193159,0.22193159 0 0 1 -0.22192,-0.22193 0.22193159,0.22193159 0 0 1 0.22192,-0.221933 0.22193159,0.22193159 0 0 1 0.22194,0.221933 z" />
    <path
       id="circle440"
       style="fill:#f9f9f9;stroke-width:0.0788686;stroke-linecap:round"
       d="m 157.896,78.533213 a 0.19815321,0.19815321 0 0 1 -0.19816,0.198152 0.19815321,0.19815321 0 0 1 -0.19815,-0.198152 0.19815321,0.19815321 0 0 1 0.19815,-0.198154 0.19815321,0.19815321 0 0 1 0.19816,0.198154 z" />
    <path
       id="circle441"
       style="fill:#f9f9f9;stroke-width:0.0788686;stroke-linecap:round"
       d="m 159.87118,78.081739 a 0.19815321,0.19815321 0 0 1 -0.19815,0.198151 0.19815321,0.19815321 0 0 1 -0.19815,-0.198151 0.19815321,0.19815321 0 0 1 0.19815,-0.198155 0.19815321,0.19815321 0 0 1 0.19815,0.198155 z" />
    <path
       id="circle442"
       style="fill:#f9f9f9;stroke-width:0.0441664;stroke-linecap:round"
       d="m 154.04144,74.913261 a 0.11096579,0.11096579 0 0 1 -0.11097,0.110966 0.11096579,0.11096579 0 0 1 -0.11097,-0.110966 0.11096579,0.11096579 0 0 1 0.11097,-0.110964 0.11096579,0.11096579 0 0 1 0.11097,0.110964 z" />
    <path
       id="circle443"
       style="fill:#f9f9f9;stroke-width:0.0788686;stroke-linecap:round"
       d="m 149.23953,74.053899 a 0.19815321,0.19815321 0 0 1 -0.19815,0.198152 0.19815321,0.19815321 0 0 1 -0.19815,-0.198152 0.19815321,0.19815321 0 0 1 0.19815,-0.198154 0.19815321,0.19815321 0 0 1 0.19815,0.198154 z" />
    <path
       id="circle444"
       style="fill:#f9f9f9;stroke-width:0.164047;stroke-linecap:round"
       d="m 149.21368,70.576528 a 0.41215868,0.41215868 0 0 1 -0.41216,0.412158 0.41215868,0.41215868 0 0 1 -0.41216,-0.412158 0.41215868,0.41215868 0 0 1 0.41216,-0.41216 0.41215868,0.41215868 0 0 1 0.41216,0.41216 z" />
    <path
       id="circle445"
       style="fill:#f9f9f9;stroke-width:0.0788686;stroke-linecap:round"
       d="m 155.21803,81.399283 a 0.19815321,0.19815321 0 0 1 -0.19816,0.198154 0.19815321,0.19815321 0 0 1 -0.19815,-0.198154 0.19815321,0.19815321 0 0 1 0.19815,-0.198152 0.19815321,0.19815321 0 0 1 0.19816,0.198152 z" />
    <path
       id="circle446"
       style="fill:#f9f9f9;stroke-width:0.088333;stroke-linecap:round"
       d="m 153.83831,77.103841 a 0.22193159,0.22193159 0 0 1 -0.22193,0.221933 0.22193159,0.22193159 0 0 1 -0.22194,-0.221933 0.22193159,0.22193159 0 0 1 0.22194,-0.221929 0.22193159,0.22193159 0 0 1 0.22193,0.221929 z" />
    <path
       id="circle447"
       style="fill:#f9f9f9;stroke-width:0.0441664;stroke-linecap:round"
       d="m 155.49747,77.973442 a 0.11096579,0.11096579 0 0 1 -0.11097,0.110966 0.11096579,0.11096579 0 0 1 -0.11096,-0.110966 0.11096579,0.11096579 0 0 1 0.11096,-0.110964 0.11096579,0.11096579 0 0 1 0.11097,0.110964 z" />
    <path
       id="circle448"
       style="fill:#f9f9f9;stroke-width:0.113571;stroke-linecap:round"
       d="m 154.15465,73.44163 a 0.28534061,0.28534061 0 0 1 -0.28534,0.28534 0.28534061,0.28534061 0 0 1 -0.28534,-0.28534 0.28534061,0.28534061 0 0 1 0.28534,-0.28534 0.28534061,0.28534061 0 0 1 0.28534,0.28534 z" />
    <path
       id="circle449"
       style="fill:#f9f9f9;stroke-width:0.164047;stroke-linecap:round"
       d="m 154.25588,81.023805 a 0.41215868,0.41215868 0 0 1 -0.41216,0.41216 0.41215868,0.41215868 0 0 1 -0.41216,-0.41216 0.41215868,0.41215868 0 0 1 0.41216,-0.412158 0.41215868,0.41215868 0 0 1 0.41216,0.412158 z" />
    <path
       id="circle450"
       style="fill:#f9f9f9;stroke-width:0.0788686;stroke-linecap:round"
       d="m 158.74905,82.52767 a 0.19815321,0.19815321 0 0 1 -0.19816,0.198154 0.19815321,0.19815321 0 0 1 -0.19815,-0.198154 0.19815321,0.19815321 0 0 1 0.19815,-0.198152 0.19815321,0.19815321 0 0 1 0.19816,0.198152 z" />
    <path
       id="circle451"
       style="fill:#f9f9f9;stroke-width:0.05994;stroke-linecap:round"
       d="m 158.52789,83.689389 a 0.15059643,0.15059643 0 0 1 -0.1506,0.150596 0.15059643,0.15059643 0 0 1 -0.15059,-0.150596 0.15059643,0.15059643 0 0 1 0.15059,-0.150595 0.15059643,0.15059643 0 0 1 0.1506,0.150595 z" />
    <path
       id="circle452"
       style="fill:#f9f9f9;stroke-width:0.0441664;stroke-linecap:round"
       d="m 157.49058,82.060096 a 0.11096579,0.11096579 0 0 1 -0.11097,0.110966 0.11096579,0.11096579 0 0 1 -0.11096,-0.110966 0.11096579,0.11096579 0 0 1 0.11096,-0.110967 0.11096579,0.11096579 0 0 1 0.11097,0.110967 z" />
    <path
       id="circle453"
       style="fill:#f9f9f9;stroke-width:0.0788686;stroke-linecap:round"
       d="m 155.21803,82.986783 a 0.19815321,0.19815321 0 0 1 -0.19816,0.198154 0.19815321,0.19815321 0 0 1 -0.19815,-0.198154 0.19815321,0.19815321 0 0 1 0.19815,-0.198152 0.19815321,0.19815321 0 0 1 0.19816,0.198152 z" />
    <path
       id="circle454"
       style="fill:#f9f9f9;stroke-width:0.0441664;stroke-linecap:round"
       d="m 169.13125,88.115572 a 0.11096579,0.11096579 0 0 1 -0.11097,0.110966 0.11096579,0.11096579 0 0 1 -0.11097,-0.110966 0.11096579,0.11096579 0 0 1 0.11097,-0.110966 0.11096579,0.11096579 0 0 1 0.11097,0.110966 z" />
    <path
       id="circle455"
       style="fill:#f9f9f9;stroke-width:0.0441664;stroke-linecap:round"
       d="m 168.84197,84.835443 a 0.11096579,0.11096579 0 0 1 -0.11096,0.110966 0.11096579,0.11096579 0 0 1 -0.11097,-0.110966 0.11096579,0.11096579 0 0 1 0.11097,-0.110964 0.11096579,0.11096579 0 0 1 0.11096,0.110964 z" />
    <path
       id="circle456"
       style="fill:#f9f9f9;stroke-width:0.05994;stroke-linecap:round"
       d="m 164.7144,83.971493 a 0.15059643,0.15059643 0 0 1 -0.1506,0.150598 0.15059643,0.15059643 0 0 1 -0.1506,-0.150598 0.15059643,0.15059643 0 0 1 0.1506,-0.150595 0.15059643,0.15059643 0 0 1 0.1506,0.150595 z" />
    <path
       id="circle457"
       style="fill:#f9f9f9;stroke-width:0.0441664;stroke-linecap:round"
       d="m 163.33076,84.340254 a 0.11096579,0.11096579 0 0 1 -0.11097,0.110966 0.11096579,0.11096579 0 0 1 -0.11096,-0.110966 0.11096579,0.11096579 0 0 1 0.11096,-0.110967 0.11096579,0.11096579 0 0 1 0.11097,0.110967 z" />
    <path
       id="circle458"
       style="fill:#f9f9f9;stroke-width:0.0441664;stroke-linecap:round"
       d="m 160.89785,80.784045 a 0.11096579,0.11096579 0 0 1 -0.11097,0.110963 0.11096579,0.11096579 0 0 1 -0.11096,-0.110963 0.11096579,0.11096579 0 0 1 0.11096,-0.110967 0.11096579,0.11096579 0 0 1 0.11097,0.110967 z" />
    <path
       id="circle459"
       style="fill:#f9f9f9;stroke-width:0.0441664;stroke-linecap:round"
       d="m 166.54655,82.892184 a 0.11096579,0.11096579 0 0 1 -0.11096,0.110966 0.11096579,0.11096579 0 0 1 -0.11097,-0.110966 0.11096579,0.11096579 0 0 1 0.11097,-0.110966 0.11096579,0.11096579 0 0 1 0.11096,0.110966 z" />
    <path
       id="circle460"
       style="fill:#f9f9f9;stroke-width:0.0441664;stroke-linecap:round"
       d="m 162.31322,82.892184 a 0.11096579,0.11096579 0 0 1 -0.11097,0.110966 0.11096579,0.11096579 0 0 1 -0.11096,-0.110966 0.11096579,0.11096579 0 0 1 0.11096,-0.110966 0.11096579,0.11096579 0 0 1 0.11097,0.110966 z" />
    <path
       id="circle461"
       style="fill:#f9f9f9;stroke-width:0.0441664;stroke-linecap:round"
       d="m 162.37663,81.148442 a 0.11096579,0.11096579 0 0 1 -0.11096,0.110966 0.11096579,0.11096579 0 0 1 -0.11097,-0.110966 0.11096579,0.11096579 0 0 1 0.11097,-0.110964 0.11096579,0.11096579 0 0 1 0.11096,0.110964 z" />
    <path
       id="circle462"
       style="fill:#f9f9f9;stroke-width:0.05994;stroke-linecap:round"
       d="m 165.40706,86.864389 a 0.15059643,0.15059643 0 0 1 -0.1506,0.150596 0.15059643,0.15059643 0 0 1 -0.1506,-0.150596 0.15059643,0.15059643 0 0 1 0.1506,-0.150595 0.15059643,0.15059643 0 0 1 0.1506,0.150595 z" />
    <path
       id="circle463"
       style="fill:#f9f9f9;stroke-width:0.0441664;stroke-linecap:round"
       d="m 164.36975,85.235096 a 0.11096579,0.11096579 0 0 1 -0.11097,0.110966 0.11096579,0.11096579 0 0 1 -0.11097,-0.110966 0.11096579,0.11096579 0 0 1 0.11097,-0.110967 0.11096579,0.11096579 0 0 1 0.11097,0.110967 z" />
  </g>
</svg>
